<?xml version="1.0" encoding="utf-8" standalone="no"?>
<!DOCTYPE svg PUBLIC "-//W3C//DTD SVG 1.1//EN"
  "http://www.w3.org/Graphics/SVG/1.1/DTD/svg11.dtd">
<svg xmlns:xlink="http://www.w3.org/1999/xlink" width="792pt" height="475.2pt" viewBox="0 0 792 475.2" xmlns="http://www.w3.org/2000/svg" version="1.1">
 <metadata>
  <rdf:RDF xmlns:dc="http://purl.org/dc/elements/1.1/" xmlns:cc="http://creativecommons.org/ns#" xmlns:rdf="http://www.w3.org/1999/02/22-rdf-syntax-ns#">
   <cc:Work>
    <dc:type rdf:resource="http://purl.org/dc/dcmitype/StillImage"/>
    <dc:format>image/svg+xml</dc:format>
    <dc:creator>
     <cc:Agent>
      <dc:title>Matplotlib v3.11.2, https://matplotlib.org/</dc:title>
     </cc:Agent>
    </dc:creator>
   </cc:Work>
  </rdf:RDF>
 </metadata>
 <defs>
  <style type="text/css">*{stroke-linejoin: round; stroke-linecap: butt}</style>
 </defs>
 <g id="figure_1">
  <g id="patch_1">
   <path d="M 0 475.2
L 792 475.2
L 792 0
L 0 0
z
" style="fill: #ffffff"/>
  </g>
  <g id="axes_1">
   <g id="patch_2">
    <path d="M 87.12 384.912
L 760.32 384.912
L 760.32 95.04
L 87.12 95.04
z
" style="fill: #ffffff"/>
   </g>
   <g id="PathCollection_1">
    <path d="M 522.211793 204.503078
C 524.043423 204.503078 525.800281 203.775364 527.095439 202.480206
C 528.390597 201.185048 529.118312 199.42819 529.118312 197.59656
C 529.118312 195.764929 528.390597 194.008072 527.095439 192.712913
C 525.800281 191.417755 524.043423 190.690041 522.211793 190.690041
C 520.380163 190.690041 518.623305 191.417755 517.328147 192.712913
C 516.032989 194.008072 515.305274 195.764929 515.305274 197.59656
C 515.305274 199.42819 516.032989 201.185048 517.328147 202.480206
C 518.623305 203.775364 520.380163 204.503078 522.211793 204.503078
z
" clip-path="url(#pc43534a131)" style="fill: #3569ab; fill-opacity: 0.75; stroke: #ffffff; stroke-opacity: 0.75; stroke-width: 0.6"/>
    <path d="M 551.714607 187.984886
C 553.505465 187.984886 555.223214 187.273371 556.489542 186.007044
C 557.755869 184.740716 558.467384 183.022966 558.467384 181.232109
C 558.467384 179.441252 557.755869 177.723502 556.489542 176.457174
C 555.223214 175.190847 553.505465 174.479332 551.714607 174.479332
C 549.92375 174.479332 548.206 175.190847 546.939673 176.457174
C 545.673345 177.723502 544.96183 179.441252 544.96183 181.232109
C 544.96183 183.022966 545.673345 184.740716 546.939673 186.007044
C 548.206 187.273371 549.92375 187.984886 551.714607 187.984886
z
" clip-path="url(#pc43534a131)" style="fill: #3569ab; fill-opacity: 0.75; stroke: #ffffff; stroke-opacity: 0.75; stroke-width: 0.6"/>
    <path d="M 537.508878 156.487728
C 538.814852 156.487728 540.067512 155.968859 540.990975 155.045396
C 541.914438 154.121933 542.433307 152.869273 542.433307 151.563299
C 542.433307 150.257325 541.914438 149.004665 540.990975 148.081202
C 540.067512 147.157739 538.814852 146.63887 537.508878 146.63887
C 536.202904 146.63887 534.950244 147.157739 534.026781 148.081202
C 533.103318 149.004665 532.584449 150.257325 532.584449 151.563299
C 532.584449 152.869273 533.103318 154.121933 534.026781 155.045396
C 534.950244 155.968859 536.202904 156.487728 537.508878 156.487728
z
" clip-path="url(#pc43534a131)" style="fill: #3569ab; fill-opacity: 0.75; stroke: #ffffff; stroke-opacity: 0.75; stroke-width: 0.6"/>
    <path d="M 538.556812 188.273491
C 539.862785 188.273491 541.115446 187.754623 542.038909 186.83116
C 542.962372 185.907697 543.481241 184.655036 543.481241 183.349063
C 543.481241 182.043089 542.962372 180.790428 542.038909 179.866965
C 541.115446 178.943503 539.862785 178.424634 538.556812 178.424634
C 537.250838 178.424634 535.998177 178.943503 535.074715 179.866965
C 534.151252 180.790428 533.632383 182.043089 533.632383 183.349063
C 533.632383 184.655036 534.151252 185.907697 535.074715 186.83116
C 535.998177 187.754623 537.250838 188.273491 538.556812 188.273491
z
" clip-path="url(#pc43534a131)" style="fill: #3569ab; fill-opacity: 0.75; stroke: #ffffff; stroke-opacity: 0.75; stroke-width: 0.6"/>
    <path d="M 511.858496 147.419127
C 513.635555 147.419127 515.340069 146.713094 516.596639 145.456524
C 517.853209 144.199954 518.559242 142.49544 518.559242 140.718381
C 518.559242 138.941322 517.853209 137.236808 516.596639 135.980238
C 515.340069 134.723668 513.635555 134.017635 511.858496 134.017635
C 510.081437 134.017635 508.376923 134.723668 507.120353 135.980238
C 505.863783 137.236808 505.15775 138.941322 505.15775 140.718381
C 505.15775 142.49544 505.863783 144.199954 507.120353 145.456524
C 508.376923 146.713094 510.081437 147.419127 511.858496 147.419127
z
" clip-path="url(#pc43534a131)" style="fill: #3569ab; fill-opacity: 0.75; stroke: #ffffff; stroke-opacity: 0.75; stroke-width: 0.6"/>
    <path d="M 532.319813 194.429614
C 534.033402 194.429614 535.677039 193.748798 536.88873 192.537107
C 538.10042 191.325416 538.781237 189.68178 538.781237 187.96819
C 538.781237 186.254601 538.10042 184.610965 536.88873 183.399274
C 535.677039 182.187583 534.033402 181.506766 532.319813 181.506766
C 530.606223 181.506766 528.962587 182.187583 527.750896 183.399274
C 526.539205 184.610965 525.858389 186.254601 525.858389 187.96819
C 525.858389 189.68178 526.539205 191.325416 527.750896 192.537107
C 528.962587 193.748798 530.606223 194.429614 532.319813 194.429614
z
" clip-path="url(#pc43534a131)" style="fill: #3569ab; fill-opacity: 0.75; stroke: #ffffff; stroke-opacity: 0.75; stroke-width: 0.6"/>
    <path d="M 529.203841 249.024331
C 530.109035 249.024331 530.977276 248.664694 531.617345 248.024625
C 532.257414 247.384557 532.617051 246.516315 532.617051 245.611122
C 532.617051 244.705928 532.257414 243.837687 531.617345 243.197618
C 530.977276 242.557549 530.109035 242.197912 529.203841 242.197912
C 528.298647 242.197912 527.430406 242.557549 526.790338 243.197618
C 526.150269 243.837687 525.790632 244.705928 525.790632 245.611122
C 525.790632 246.516315 526.150269 247.384557 526.790338 248.024625
C 527.430406 248.664694 528.298647 249.024331 529.203841 249.024331
z
" clip-path="url(#pc43534a131)" style="fill: #3569ab; fill-opacity: 0.75; stroke: #ffffff; stroke-opacity: 0.75; stroke-width: 0.6"/>
    <path d="M 509.152269 211.501641
C 510.626474 211.501641 512.040498 210.915933 513.082918 209.873513
C 514.125339 208.831092 514.711046 207.417069 514.711046 205.942864
C 514.711046 204.468659 514.125339 203.054635 513.082918 202.012215
C 512.040498 200.969795 510.626474 200.384087 509.152269 200.384087
C 507.678065 200.384087 506.264041 200.969795 505.221621 202.012215
C 504.1792 203.054635 503.593493 204.468659 503.593493 205.942864
C 503.593493 207.417069 504.1792 208.831092 505.221621 209.873513
C 506.264041 210.915933 507.678065 211.501641 509.152269 211.501641
z
" clip-path="url(#pc43534a131)" style="fill: #3569ab; fill-opacity: 0.75; stroke: #ffffff; stroke-opacity: 0.75; stroke-width: 0.6"/>
    <path d="M 578.625394 124.646798
C 579.748992 124.646798 580.826721 124.200388 581.621225 123.405884
C 582.415728 122.611381 582.862138 121.533652 582.862138 120.410054
C 582.862138 119.286456 582.415728 118.208727 581.621225 117.414223
C 580.826721 116.61972 579.748992 116.17331 578.625394 116.17331
C 577.501797 116.17331 576.424067 116.61972 575.629564 117.414223
C 574.83506 118.208727 574.38865 119.286456 574.38865 120.410054
C 574.38865 121.533652 574.83506 122.611381 575.629564 123.405884
C 576.424067 124.200388 577.501797 124.646798 578.625394 124.646798
z
" clip-path="url(#pc43534a131)" style="fill: #3569ab; fill-opacity: 0.75; stroke: #ffffff; stroke-opacity: 0.75; stroke-width: 0.6"/>
    <path d="M 523.322343 175.240301
C 524.3426 175.240301 525.321207 174.834949 526.042637 174.113519
C 526.764068 173.392088 527.16942 172.413481 527.16942 171.393225
C 527.16942 170.372968 526.764068 169.394361 526.042637 168.672931
C 525.321207 167.9515 524.3426 167.546148 523.322343 167.546148
C 522.302086 167.546148 521.323479 167.9515 520.602049 168.672931
C 519.880618 169.394361 519.475266 170.372968 519.475266 171.393225
C 519.475266 172.413481 519.880618 173.392088 520.602049 174.113519
C 521.323479 174.834949 522.302086 175.240301 523.322343 175.240301
z
" clip-path="url(#pc43534a131)" style="fill: #3569ab; fill-opacity: 0.75; stroke: #ffffff; stroke-opacity: 0.75; stroke-width: 0.6"/>
    <path d="M 582.068374 184.877539
C 582.945952 184.877539 583.787704 184.528874 584.408245 183.908333
C 585.028787 183.287792 585.377452 182.446039 585.377452 181.568461
C 585.377452 180.690883 585.028787 179.84913 584.408245 179.228589
C 583.787704 178.608048 582.945952 178.259383 582.068374 178.259383
C 581.190796 178.259383 580.349043 178.608048 579.728502 179.228589
C 579.107961 179.84913 578.759295 180.690883 578.759295 181.568461
C 578.759295 182.446039 579.107961 183.287792 579.728502 183.908333
C 580.349043 184.528874 581.190796 184.877539 582.068374 184.877539
z
" clip-path="url(#pc43534a131)" style="fill: #3569ab; fill-opacity: 0.75; stroke: #ffffff; stroke-opacity: 0.75; stroke-width: 0.6"/>
    <path d="M 532.580556 221.494124
C 533.877071 221.494124 535.120659 220.979013 536.037433 220.062239
C 536.954208 219.145464 537.469319 217.901877 537.469319 216.605362
C 537.469319 215.308847 536.954208 214.065259 536.037433 213.148484
C 535.120659 212.23171 533.877071 211.716599 532.580556 211.716599
C 531.284041 211.716599 530.040454 212.23171 529.123679 213.148484
C 528.206904 214.065259 527.691794 215.308847 527.691794 216.605362
C 527.691794 217.901877 528.206904 219.145464 529.123679 220.062239
C 530.040454 220.979013 531.284041 221.494124 532.580556 221.494124
z
" clip-path="url(#pc43534a131)" style="fill: #3569ab; fill-opacity: 0.75; stroke: #ffffff; stroke-opacity: 0.75; stroke-width: 0.6"/>
    <path d="M 523.79462 212.174636
C 525.571679 212.174636 527.276193 211.468603 528.532763 210.212033
C 529.789333 208.955462 530.495366 207.250948 530.495366 205.47389
C 530.495366 203.696831 529.789333 201.992317 528.532763 200.735747
C 527.276193 199.479176 525.571679 198.773143 523.79462 198.773143
C 522.017561 198.773143 520.313047 199.479176 519.056477 200.735747
C 517.799907 201.992317 517.093874 203.696831 517.093874 205.47389
C 517.093874 207.250948 517.799907 208.955462 519.056477 210.212033
C 520.313047 211.468603 522.017561 212.174636 523.79462 212.174636
z
" clip-path="url(#pc43534a131)" style="fill: #3569ab; fill-opacity: 0.75; stroke: #ffffff; stroke-opacity: 0.75; stroke-width: 0.6"/>
    <path d="M 509.211163 238.314466
C 510.599369 238.314466 511.930904 237.762926 512.912514 236.781316
C 513.894124 235.799706 514.445664 234.46817 514.445664 233.079965
C 514.445664 231.691759 513.894124 230.360223 512.912514 229.378614
C 511.930904 228.397004 510.599369 227.845464 509.211163 227.845464
C 507.822957 227.845464 506.491422 228.397004 505.509812 229.378614
C 504.528202 230.360223 503.976662 231.691759 503.976662 233.079965
C 503.976662 234.46817 504.528202 235.799706 505.509812 236.781316
C 506.491422 237.762926 507.822957 238.314466 509.211163 238.314466
z
" clip-path="url(#pc43534a131)" style="fill: #3569ab; fill-opacity: 0.75; stroke: #ffffff; stroke-opacity: 0.75; stroke-width: 0.6"/>
    <path d="M 512.751906 173.776106
C 514.528965 173.776106 516.233479 173.070073 517.49005 171.813503
C 518.74662 170.556933 519.452653 168.852419 519.452653 167.07536
C 519.452653 165.298301 518.74662 163.593787 517.49005 162.337217
C 516.233479 161.080647 514.528965 160.374614 512.751906 160.374614
C 510.974848 160.374614 509.270334 161.080647 508.013763 162.337217
C 506.757193 163.593787 506.05116 165.298301 506.05116 167.07536
C 506.05116 168.852419 506.757193 170.556933 508.013763 171.813503
C 509.270334 173.070073 510.974848 173.776106 512.751906 173.776106
z
" clip-path="url(#pc43534a131)" style="fill: #3569ab; fill-opacity: 0.75; stroke: #ffffff; stroke-opacity: 0.75; stroke-width: 0.6"/>
    <path d="M 539.261192 245.380518
C 540.519161 245.380518 541.725776 244.880721 542.615294 243.991203
C 543.504812 243.101685 544.004609 241.89507 544.004609 240.637101
C 544.004609 239.379132 543.504812 238.172517 542.615294 237.282999
C 541.725776 236.393481 540.519161 235.893685 539.261192 235.893685
C 538.003223 235.893685 536.796608 236.393481 535.90709 237.282999
C 535.017572 238.172517 534.517776 239.379132 534.517776 240.637101
C 534.517776 241.89507 535.017572 243.101685 535.90709 243.991203
C 536.796608 244.880721 538.003223 245.380518 539.261192 245.380518
z
" clip-path="url(#pc43534a131)" style="fill: #3569ab; fill-opacity: 0.75; stroke: #ffffff; stroke-opacity: 0.75; stroke-width: 0.6"/>
    <path d="M 523.828707 210.035966
C 525.125222 210.035966 526.36881 209.520855 527.285584 208.60408
C 528.202359 207.687306 528.71747 206.443718 528.71747 205.147203
C 528.71747 203.850688 528.202359 202.6071 527.285584 201.690326
C 526.36881 200.773551 525.125222 200.25844 523.828707 200.25844
C 522.532192 200.25844 521.288604 200.773551 520.37183 201.690326
C 519.455055 202.6071 518.939944 203.850688 518.939944 205.147203
C 518.939944 206.443718 519.455055 207.687306 520.37183 208.60408
C 521.288604 209.520855 522.532192 210.035966 523.828707 210.035966
z
" clip-path="url(#pc43534a131)" style="fill: #3569ab; fill-opacity: 0.75; stroke: #ffffff; stroke-opacity: 0.75; stroke-width: 0.6"/>
    <path d="M 535.697003 213.104967
C 537.528633 213.104967 539.285491 212.377252 540.580649 211.082094
C 541.875807 209.786936 542.603522 208.030078 542.603522 206.198448
C 542.603522 204.366818 541.875807 202.60996 540.580649 201.314802
C 539.285491 200.019644 537.528633 199.291929 535.697003 199.291929
C 533.865373 199.291929 532.108515 200.019644 530.813357 201.314802
C 529.518199 202.60996 528.790484 204.366818 528.790484 206.198448
C 528.790484 208.030078 529.518199 209.786936 530.813357 211.082094
C 532.108515 212.377252 533.865373 213.104967 535.697003 213.104967
z
" clip-path="url(#pc43534a131)" style="fill: #3569ab; fill-opacity: 0.75; stroke: #ffffff; stroke-opacity: 0.75; stroke-width: 0.6"/>
   </g>
   <g id="PathCollection_2">
    <path d="M 447.578662 235.640327
C 448.865648 235.640327 450.100097 235.129002 451.010134 234.218965
C 451.920171 233.308928 452.431496 232.07448 452.431496 230.787493
C 452.431496 229.500507 451.920171 228.266058 451.010134 227.356021
C 450.100097 226.445984 448.865648 225.934659 447.578662 225.934659
C 446.291675 225.934659 445.057227 226.445984 444.14719 227.356021
C 443.237153 228.266058 442.725827 229.500507 442.725827 230.787493
C 442.725827 232.07448 443.237153 233.308928 444.14719 234.218965
C 445.057227 235.129002 446.291675 235.640327 447.578662 235.640327
z
" clip-path="url(#pc43534a131)" style="fill: #0c8979; fill-opacity: 0.75; stroke: #ffffff; stroke-opacity: 0.75; stroke-width: 0.6"/>
    <path d="M 490.588611 208.332863
C 491.57201 208.332863 492.515264 207.942154 493.210633 207.246786
C 493.906001 206.551418 494.29671 205.608163 494.29671 204.624764
C 494.29671 203.641364 493.906001 202.69811 493.210633 202.002742
C 492.515264 201.307373 491.57201 200.916665 490.588611 200.916665
C 489.605211 200.916665 488.661957 201.307373 487.966589 202.002742
C 487.27122 202.69811 486.880511 203.641364 486.880511 204.624764
C 486.880511 205.608163 487.27122 206.551418 487.966589 207.246786
C 488.661957 207.942154 489.605211 208.332863 490.588611 208.332863
z
" clip-path="url(#pc43534a131)" style="fill: #0c8979; fill-opacity: 0.75; stroke: #ffffff; stroke-opacity: 0.75; stroke-width: 0.6"/>
    <path d="M 507.72874 191.428555
C 509.519598 191.428555 511.237348 190.71704 512.503675 189.450712
C 513.770002 188.184385 514.481518 186.466635 514.481518 184.675778
C 514.481518 182.88492 513.770002 181.167171 512.503675 179.900843
C 511.237348 178.634516 509.519598 177.923001 507.72874 177.923001
C 505.937883 177.923001 504.220133 178.634516 502.953806 179.900843
C 501.687478 181.167171 500.975963 182.88492 500.975963 184.675778
C 500.975963 186.466635 501.687478 188.184385 502.953806 189.450712
C 504.220133 190.71704 505.937883 191.428555 507.72874 191.428555
z
" clip-path="url(#pc43534a131)" style="fill: #0c8979; fill-opacity: 0.75; stroke: #ffffff; stroke-opacity: 0.75; stroke-width: 0.6"/>
    <path d="M 507.500409 216.96108
C 508.806383 216.96108 510.059043 216.442211 510.982506 215.518748
C 511.905969 214.595285 512.424838 213.342625 512.424838 212.036651
C 512.424838 210.730677 511.905969 209.478017 510.982506 208.554554
C 510.059043 207.631091 508.806383 207.112222 507.500409 207.112222
C 506.194435 207.112222 504.941775 207.631091 504.018312 208.554554
C 503.094849 209.478017 502.57598 210.730677 502.57598 212.036651
C 502.57598 213.342625 503.094849 214.595285 504.018312 215.518748
C 504.941775 216.442211 506.194435 216.96108 507.500409 216.96108
z
" clip-path="url(#pc43534a131)" style="fill: #0c8979; fill-opacity: 0.75; stroke: #ffffff; stroke-opacity: 0.75; stroke-width: 0.6"/>
    <path d="M 489.672668 251.319814
C 490.796265 251.319814 491.873995 250.873404 492.668498 250.0789
C 493.463002 249.284397 493.909412 248.206667 493.909412 247.08307
C 493.909412 245.959472 493.463002 244.881743 492.668498 244.087239
C 491.873995 243.292736 490.796265 242.846326 489.672668 242.846326
C 488.54907 242.846326 487.471341 243.292736 486.676837 244.087239
C 485.882334 244.881743 485.435924 245.959472 485.435924 247.08307
C 485.435924 248.206667 485.882334 249.284397 486.676837 250.0789
C 487.471341 250.873404 488.54907 251.319814 489.672668 251.319814
z
" clip-path="url(#pc43534a131)" style="fill: #0c8979; fill-opacity: 0.75; stroke: #ffffff; stroke-opacity: 0.75; stroke-width: 0.6"/>
    <path d="M 467.85303 223.572337
C 468.730608 223.572337 469.572361 223.223671 470.192902 222.60313
C 470.813444 221.982589 471.162109 221.140836 471.162109 220.263258
C 471.162109 219.385681 470.813444 218.543928 470.192902 217.923387
C 469.572361 217.302845 468.730608 216.95418 467.85303 216.95418
C 466.975453 216.95418 466.1337 217.302845 465.513159 217.923387
C 464.892617 218.543928 464.543952 219.385681 464.543952 220.263258
C 464.543952 221.140836 464.892617 221.982589 465.513159 222.60313
C 466.1337 223.223671 466.975453 223.572337 467.85303 223.572337
z
" clip-path="url(#pc43534a131)" style="fill: #0c8979; fill-opacity: 0.75; stroke: #ffffff; stroke-opacity: 0.75; stroke-width: 0.6"/>
    <path d="M 437.489282 241.508829
C 438.785797 241.508829 440.029385 240.993719 440.946159 240.076944
C 441.862934 239.160169 442.378045 237.916582 442.378045 236.620067
C 442.378045 235.323552 441.862934 234.079964 440.946159 233.16319
C 440.029385 232.246415 438.785797 231.731304 437.489282 231.731304
C 436.192767 231.731304 434.949179 232.246415 434.032405 233.16319
C 433.11563 234.079964 432.600519 235.323552 432.600519 236.620067
C 432.600519 237.916582 433.11563 239.160169 434.032405 240.076944
C 434.949179 240.993719 436.192767 241.508829 437.489282 241.508829
z
" clip-path="url(#pc43534a131)" style="fill: #0c8979; fill-opacity: 0.75; stroke: #ffffff; stroke-opacity: 0.75; stroke-width: 0.6"/>
    <path d="M 478.849486 322.152329
C 479.832886 322.152329 480.77614 321.761621 481.471508 321.066252
C 482.166877 320.370884 482.557586 319.42763 482.557586 318.44423
C 482.557586 317.460831 482.166877 316.517576 481.471508 315.822208
C 480.77614 315.12684 479.832886 314.736131 478.849486 314.736131
C 477.866087 314.736131 476.922833 315.12684 476.227464 315.822208
C 475.532096 316.517576 475.141387 317.460831 475.141387 318.44423
C 475.141387 319.42763 475.532096 320.370884 476.227464 321.066252
C 476.922833 321.761621 477.866087 322.152329 478.849486 322.152329
z
" clip-path="url(#pc43534a131)" style="fill: #0c8979; fill-opacity: 0.75; stroke: #ffffff; stroke-opacity: 0.75; stroke-width: 0.6"/>
    <path d="M 521.937707 203.04368
C 523.769337 203.04368 525.526195 202.315966 526.821353 201.020808
C 528.116511 199.72565 528.844225 197.968792 528.844225 196.137161
C 528.844225 194.305531 528.116511 192.548673 526.821353 191.253515
C 525.526195 189.958357 523.769337 189.230643 521.937707 189.230643
C 520.106077 189.230643 518.349219 189.958357 517.054061 191.253515
C 515.758902 192.548673 515.031188 194.305531 515.031188 196.137161
C 515.031188 197.968792 515.758902 199.72565 517.054061 201.020808
C 518.349219 202.315966 520.106077 203.04368 521.937707 203.04368
z
" clip-path="url(#pc43534a131)" style="fill: #0c8979; fill-opacity: 0.75; stroke: #ffffff; stroke-opacity: 0.75; stroke-width: 0.6"/>
    <path d="M 518.694973 200.523095
C 520.000946 200.523095 521.253607 200.004226 522.17707 199.080763
C 523.100533 198.1573 523.619402 196.90464 523.619402 195.598666
C 523.619402 194.292692 523.100533 193.040032 522.17707 192.116569
C 521.253607 191.193106 520.000946 190.674237 518.694973 190.674237
C 517.388999 190.674237 516.136338 191.193106 515.212876 192.116569
C 514.289413 193.040032 513.770544 194.292692 513.770544 195.598666
C 513.770544 196.90464 514.289413 198.1573 515.212876 199.080763
C 516.136338 200.004226 517.388999 200.523095 518.694973 200.523095
z
" clip-path="url(#pc43534a131)" style="fill: #0c8979; fill-opacity: 0.75; stroke: #ffffff; stroke-opacity: 0.75; stroke-width: 0.6"/>
    <path d="M 485.664814 178.472464
C 487.441873 178.472464 489.146387 177.766431 490.402957 176.509861
C 491.659528 175.25329 492.36556 173.548776 492.36556 171.771717
C 492.36556 169.994659 491.659528 168.290145 490.402957 167.033574
C 489.146387 165.777004 487.441873 165.070971 485.664814 165.070971
C 483.887756 165.070971 482.183241 165.777004 480.926671 167.033574
C 479.670101 168.290145 478.964068 169.994659 478.964068 171.771717
C 478.964068 173.548776 479.670101 175.25329 480.926671 176.509861
C 482.183241 177.766431 483.887756 178.472464 485.664814 178.472464
z
" clip-path="url(#pc43534a131)" style="fill: #0c8979; fill-opacity: 0.75; stroke: #ffffff; stroke-opacity: 0.75; stroke-width: 0.6"/>
    <path d="M 523.462796 185.836334
C 524.495046 185.836334 525.485157 185.426216 526.215068 184.696305
C 526.944979 183.966394 527.355096 182.976284 527.355096 181.944034
C 527.355096 180.911784 526.944979 179.921673 526.215068 179.191762
C 525.485157 178.461851 524.495046 178.051734 523.462796 178.051734
C 522.430546 178.051734 521.440435 178.461851 520.710524 179.191762
C 519.980613 179.921673 519.570496 180.911784 519.570496 181.944034
C 519.570496 182.976284 519.980613 183.966394 520.710524 184.696305
C 521.440435 185.426216 522.430546 185.836334 523.462796 185.836334
z
" clip-path="url(#pc43534a131)" style="fill: #0c8979; fill-opacity: 0.75; stroke: #ffffff; stroke-opacity: 0.75; stroke-width: 0.6"/>
    <path d="M 497.413705 187.533172
C 498.186898 187.533172 498.928528 187.225979 499.475258 186.679249
C 500.021988 186.132519 500.329181 185.390889 500.329181 184.617696
C 500.329181 183.844503 500.021988 183.102873 499.475258 182.556143
C 498.928528 182.009413 498.186898 181.70222 497.413705 181.70222
C 496.640512 181.70222 495.898882 182.009413 495.352152 182.556143
C 494.805422 183.102873 494.498229 183.844503 494.498229 184.617696
C 494.498229 185.390889 494.805422 186.132519 495.352152 186.679249
C 495.898882 187.225979 496.640512 187.533172 497.413705 187.533172
z
" clip-path="url(#pc43534a131)" style="fill: #0c8979; fill-opacity: 0.75; stroke: #ffffff; stroke-opacity: 0.75; stroke-width: 0.6"/>
    <path d="M 494.095557 208.05956
C 495.552968 208.05956 496.950884 207.480525 497.981429 206.449979
C 499.011974 205.419434 499.59101 204.021519 499.59101 202.564107
C 499.59101 201.106696 499.011974 199.708781 497.981429 198.678236
C 496.950884 197.64769 495.552968 197.068655 494.095557 197.068655
C 492.638146 197.068655 491.240231 197.64769 490.209685 198.678236
C 489.17914 199.708781 488.600104 201.106696 488.600104 202.564107
C 488.600104 204.021519 489.17914 205.419434 490.209685 206.449979
C 491.240231 207.480525 492.638146 208.05956 494.095557 208.05956
z
" clip-path="url(#pc43534a131)" style="fill: #0c8979; fill-opacity: 0.75; stroke: #ffffff; stroke-opacity: 0.75; stroke-width: 0.6"/>
    <path d="M 464.870371 283.56761
C 465.689931 283.56761 466.476033 283.241995 467.055549 282.662479
C 467.635065 282.082964 467.960679 281.296861 467.960679 280.477302
C 467.960679 279.657743 467.635065 278.871641 467.055549 278.292125
C 466.476033 277.712609 465.689931 277.386995 464.870371 277.386995
C 464.050812 277.386995 463.26471 277.712609 462.685194 278.292125
C 462.105678 278.871641 461.780064 279.657743 461.780064 280.477302
C 461.780064 281.296861 462.105678 282.082964 462.685194 282.662479
C 463.26471 283.241995 464.050812 283.56761 464.870371 283.56761
z
" clip-path="url(#pc43534a131)" style="fill: #0c8979; fill-opacity: 0.75; stroke: #ffffff; stroke-opacity: 0.75; stroke-width: 0.6"/>
    <path d="M 527.634429 180.362006
C 529.411487 180.362006 531.116002 179.655973 532.372572 178.399403
C 533.629142 177.142833 534.335175 175.438318 534.335175 173.66126
C 534.335175 171.884201 533.629142 170.179687 532.372572 168.923117
C 531.116002 167.666546 529.411487 166.960514 527.634429 166.960514
C 525.85737 166.960514 524.152856 167.666546 522.896286 168.923117
C 521.639715 170.179687 520.933683 171.884201 520.933683 173.66126
C 520.933683 175.438318 521.639715 177.142833 522.896286 178.399403
C 524.152856 179.655973 525.85737 180.362006 527.634429 180.362006
z
" clip-path="url(#pc43534a131)" style="fill: #0c8979; fill-opacity: 0.75; stroke: #ffffff; stroke-opacity: 0.75; stroke-width: 0.6"/>
    <path d="M 497.138376 238.709718
C 498.109178 238.709718 499.04035 238.324014 499.726812 237.637553
C 500.413273 236.951092 500.798977 236.01992 500.798977 235.049117
C 500.798977 234.078314 500.413273 233.147142 499.726812 232.460681
C 499.04035 231.77422 498.109178 231.388516 497.138376 231.388516
C 496.167573 231.388516 495.236401 231.77422 494.54994 232.460681
C 493.863479 233.147142 493.477775 234.078314 493.477775 235.049117
C 493.477775 236.01992 493.863479 236.951092 494.54994 237.637553
C 495.236401 238.324014 496.167573 238.709718 497.138376 238.709718
z
" clip-path="url(#pc43534a131)" style="fill: #0c8979; fill-opacity: 0.75; stroke: #ffffff; stroke-opacity: 0.75; stroke-width: 0.6"/>
    <path d="M 526.728978 217.17078
C 527.863477 217.17078 528.951663 216.720039 529.753875 215.917827
C 530.556087 215.115615 531.006828 214.02743 531.006828 212.892931
C 531.006828 211.758431 530.556087 210.670246 529.753875 209.868034
C 528.951663 209.065822 527.863477 208.615081 526.728978 208.615081
C 525.594479 208.615081 524.506293 209.065822 523.704081 209.868034
C 522.901869 210.670246 522.451128 211.758431 522.451128 212.892931
C 522.451128 214.02743 522.901869 215.115615 523.704081 215.917827
C 524.506293 216.720039 525.594479 217.17078 526.728978 217.17078
z
" clip-path="url(#pc43534a131)" style="fill: #0c8979; fill-opacity: 0.75; stroke: #ffffff; stroke-opacity: 0.75; stroke-width: 0.6"/>
    <path d="M 505.237695 173.078357
C 506.057254 173.078357 506.843356 172.752742 507.422872 172.173226
C 508.002388 171.593711 508.328002 170.807608 508.328002 169.988049
C 508.328002 169.16849 508.002388 168.382388 507.422872 167.802872
C 506.843356 167.223356 506.057254 166.897742 505.237695 166.897742
C 504.418136 166.897742 503.632033 167.223356 503.052518 167.802872
C 502.473002 168.382388 502.147387 169.16849 502.147387 169.988049
C 502.147387 170.807608 502.473002 171.593711 503.052518 172.173226
C 503.632033 172.752742 504.418136 173.078357 505.237695 173.078357
z
" clip-path="url(#pc43534a131)" style="fill: #0c8979; fill-opacity: 0.75; stroke: #ffffff; stroke-opacity: 0.75; stroke-width: 0.6"/>
    <path d="M 468.841674 240.631423
C 470.01877 240.631423 471.147813 240.163758 471.980145 239.331425
C 472.812478 238.499093 473.280143 237.37005 473.280143 236.192954
C 473.280143 235.015859 472.812478 233.886816 471.980145 233.054483
C 471.147813 232.222151 470.01877 231.754486 468.841674 231.754486
C 467.664579 231.754486 466.535536 232.222151 465.703203 233.054483
C 464.870871 233.886816 464.403206 235.015859 464.403206 236.192954
C 464.403206 237.37005 464.870871 238.499093 465.703203 239.331425
C 466.535536 240.163758 467.664579 240.631423 468.841674 240.631423
z
" clip-path="url(#pc43534a131)" style="fill: #0c8979; fill-opacity: 0.75; stroke: #ffffff; stroke-opacity: 0.75; stroke-width: 0.6"/>
    <path d="M 425.117268 202.81231
C 426.113104 202.81231 427.068288 202.416659 427.772451 201.712496
C 428.476614 201.008334 428.872264 200.05315 428.872264 199.057313
C 428.872264 198.061476 428.476614 197.106292 427.772451 196.402129
C 427.068288 195.697966 426.113104 195.302316 425.117268 195.302316
C 424.121431 195.302316 423.166247 195.697966 422.462084 196.402129
C 421.757921 197.106292 421.362271 198.061476 421.362271 199.057313
C 421.362271 200.05315 421.757921 201.008334 422.462084 201.712496
C 423.166247 202.416659 424.121431 202.81231 425.117268 202.81231
z
" clip-path="url(#pc43534a131)" style="fill: #0c8979; fill-opacity: 0.75; stroke: #ffffff; stroke-opacity: 0.75; stroke-width: 0.6"/>
    <path d="M 455.006869 259.669422
C 455.898362 259.669422 456.753462 259.315228 457.383842 258.684847
C 458.014223 258.054467 458.368417 257.199367 458.368417 256.307875
C 458.368417 255.416382 458.014223 254.561282 457.383842 253.930902
C 456.753462 253.300521 455.898362 252.946327 455.006869 252.946327
C 454.115377 252.946327 453.260277 253.300521 452.629897 253.930902
C 451.999516 254.561282 451.645322 255.416382 451.645322 256.307875
C 451.645322 257.199367 451.999516 258.054467 452.629897 258.684847
C 453.260277 259.315228 454.115377 259.669422 455.006869 259.669422
z
" clip-path="url(#pc43534a131)" style="fill: #0c8979; fill-opacity: 0.75; stroke: #ffffff; stroke-opacity: 0.75; stroke-width: 0.6"/>
    <path d="M 490.362309 144.746955
C 491.785539 144.746955 493.150668 144.1815 494.157043 143.175125
C 495.163418 142.16875 495.728873 140.803621 495.728873 139.380391
C 495.728873 137.957162 495.163418 136.592033 494.157043 135.585658
C 493.150668 134.579283 491.785539 134.013828 490.362309 134.013828
C 488.93908 134.013828 487.573951 134.579283 486.567576 135.585658
C 485.561201 136.592033 484.995746 137.957162 484.995746 139.380391
C 484.995746 140.803621 485.561201 142.16875 486.567576 143.175125
C 487.573951 144.1815 488.93908 144.746955 490.362309 144.746955
z
" clip-path="url(#pc43534a131)" style="fill: #0c8979; fill-opacity: 0.75; stroke: #ffffff; stroke-opacity: 0.75; stroke-width: 0.6"/>
    <path d="M 466.321735 192.949823
C 467.509241 192.949823 468.64827 192.478022 469.487963 191.638328
C 470.327657 190.798635 470.799458 189.659606 470.799458 188.4721
C 470.799458 187.284595 470.327657 186.145566 469.487963 185.305872
C 468.64827 184.466179 467.509241 183.994378 466.321735 183.994378
C 465.134229 183.994378 463.995201 184.466179 463.155507 185.305872
C 462.315814 186.145566 461.844013 187.284595 461.844013 188.4721
C 461.844013 189.659606 462.315814 190.798635 463.155507 191.638328
C 463.995201 192.478022 465.134229 192.949823 466.321735 192.949823
z
" clip-path="url(#pc43534a131)" style="fill: #0c8979; fill-opacity: 0.75; stroke: #ffffff; stroke-opacity: 0.75; stroke-width: 0.6"/>
    <path d="M 489.384225 249.510107
C 491.119229 249.510107 492.783405 248.820782 494.010238 247.593949
C 495.237071 246.367116 495.926396 244.70294 495.926396 242.967936
C 495.926396 241.232932 495.237071 239.568756 494.010238 238.341922
C 492.783405 237.115089 491.119229 236.425765 489.384225 236.425765
C 487.649221 236.425765 485.985044 237.115089 484.758211 238.341922
C 483.531378 239.568756 482.842054 241.232932 482.842054 242.967936
C 482.842054 244.70294 483.531378 246.367116 484.758211 247.593949
C 485.985044 248.820782 487.649221 249.510107 489.384225 249.510107
z
" clip-path="url(#pc43534a131)" style="fill: #0c8979; fill-opacity: 0.75; stroke: #ffffff; stroke-opacity: 0.75; stroke-width: 0.6"/>
   </g>
   <g id="PathCollection_3">
    <path d="M 579.106972 194.448175
C 580.88403 194.448175 582.588545 193.742142 583.845115 192.485572
C 585.101685 191.229002 585.807718 189.524488 585.807718 187.747429
C 585.807718 185.97037 585.101685 184.265856 583.845115 183.009286
C 582.588545 181.752716 580.88403 181.046683 579.106972 181.046683
C 577.329913 181.046683 575.625399 181.752716 574.368829 183.009286
C 573.112258 184.265856 572.406225 185.97037 572.406225 187.747429
C 572.406225 189.524488 573.112258 191.229002 574.368829 192.485572
C 575.625399 193.742142 577.329913 194.448175 579.106972 194.448175
z
" clip-path="url(#pc43534a131)" style="fill: #b58018; fill-opacity: 0.75; stroke: #ffffff; stroke-opacity: 0.75; stroke-width: 0.6"/>
    <path d="M 576.128389 181.18164
C 577.905448 181.18164 579.609962 180.475607 580.866532 179.219037
C 582.123103 177.962467 582.829136 176.257952 582.829136 174.480894
C 582.829136 172.703835 582.123103 170.999321 580.866532 169.742751
C 579.609962 168.48618 577.905448 167.780147 576.128389 167.780147
C 574.351331 167.780147 572.646816 168.48618 571.390246 169.742751
C 570.133676 170.999321 569.427643 172.703835 569.427643 174.480894
C 569.427643 176.257952 570.133676 177.962467 571.390246 179.219037
C 572.646816 180.475607 574.351331 181.18164 576.128389 181.18164
z
" clip-path="url(#pc43534a131)" style="fill: #b58018; fill-opacity: 0.75; stroke: #ffffff; stroke-opacity: 0.75; stroke-width: 0.6"/>
    <path d="M 589.447427 213.162081
C 590.325004 213.162081 591.166757 212.813416 591.787298 212.192875
C 592.40784 211.572333 592.756505 210.730581 592.756505 209.853003
C 592.756505 208.975425 592.40784 208.133672 591.787298 207.513131
C 591.166757 206.89259 590.325004 206.543924 589.447427 206.543924
C 588.569849 206.543924 587.728096 206.89259 587.107555 207.513131
C 586.487014 208.133672 586.138348 208.975425 586.138348 209.853003
C 586.138348 210.730581 586.487014 211.572333 587.107555 212.192875
C 587.728096 212.813416 588.569849 213.162081 589.447427 213.162081
z
" clip-path="url(#pc43534a131)" style="fill: #b58018; fill-opacity: 0.75; stroke: #ffffff; stroke-opacity: 0.75; stroke-width: 0.6"/>
    <path d="M 581.028003 195.144822
C 582.805062 195.144822 584.509576 194.43879 585.766146 193.182219
C 587.022717 191.925649 587.72875 190.221135 587.72875 188.444076
C 587.72875 186.667018 587.022717 184.962503 585.766146 183.705933
C 584.509576 182.449363 582.805062 181.74333 581.028003 181.74333
C 579.250945 181.74333 577.546431 182.449363 576.28986 183.705933
C 575.03329 184.962503 574.327257 186.667018 574.327257 188.444076
C 574.327257 190.221135 575.03329 191.925649 576.28986 193.182219
C 577.546431 194.43879 579.250945 195.144822 581.028003 195.144822
z
" clip-path="url(#pc43534a131)" style="fill: #b58018; fill-opacity: 0.75; stroke: #ffffff; stroke-opacity: 0.75; stroke-width: 0.6"/>
    <path d="M 590.606014 197.175633
C 592.080219 197.175633 593.494243 196.589925 594.536663 195.547504
C 595.579083 194.505084 596.164791 193.091061 596.164791 191.616856
C 596.164791 190.142651 595.579083 188.728627 594.536663 187.686207
C 593.494243 186.643787 592.080219 186.058079 590.606014 186.058079
C 589.131809 186.058079 587.717786 186.643787 586.675365 187.686207
C 585.632945 188.728627 585.047237 190.142651 585.047237 191.616856
C 585.047237 193.091061 585.632945 194.505084 586.675365 195.547504
C 587.717786 196.589925 589.131809 197.175633 590.606014 197.175633
z
" clip-path="url(#pc43534a131)" style="fill: #b58018; fill-opacity: 0.75; stroke: #ffffff; stroke-opacity: 0.75; stroke-width: 0.6"/>
    <path d="M 595.484778 181.622551
C 596.790752 181.622551 598.043412 181.103682 598.966875 180.18022
C 599.890338 179.256757 600.409207 178.004096 600.409207 176.698122
C 600.409207 175.392149 599.890338 174.139488 598.966875 173.216025
C 598.043412 172.292562 596.790752 171.773694 595.484778 171.773694
C 594.178804 171.773694 592.926144 172.292562 592.002681 173.216025
C 591.079218 174.139488 590.560349 175.392149 590.560349 176.698122
C 590.560349 178.004096 591.079218 179.256757 592.002681 180.18022
C 592.926144 181.103682 594.178804 181.622551 595.484778 181.622551
z
" clip-path="url(#pc43534a131)" style="fill: #b58018; fill-opacity: 0.75; stroke: #ffffff; stroke-opacity: 0.75; stroke-width: 0.6"/>
    <path d="M 582.25832 212.415316
C 583.971909 212.415316 585.615545 211.7345 586.827236 210.522809
C 588.038927 209.311118 588.719744 207.667482 588.719744 205.953892
C 588.719744 204.240302 588.038927 202.596666 586.827236 201.384975
C 585.615545 200.173284 583.971909 199.492468 582.25832 199.492468
C 580.54473 199.492468 578.901094 200.173284 577.689403 201.384975
C 576.477712 202.596666 575.796896 204.240302 575.796896 205.953892
C 575.796896 207.667482 576.477712 209.311118 577.689403 210.522809
C 578.901094 211.7345 580.54473 212.415316 582.25832 212.415316
z
" clip-path="url(#pc43534a131)" style="fill: #b58018; fill-opacity: 0.75; stroke: #ffffff; stroke-opacity: 0.75; stroke-width: 0.6"/>
    <path d="M 582.11516 168.799499
C 583.946791 168.799499 585.703648 168.071785 586.998807 166.776627
C 588.293965 165.481468 589.021679 163.724611 589.021679 161.89298
C 589.021679 160.06135 588.293965 158.304492 586.998807 157.009334
C 585.703648 155.714176 583.946791 154.986462 582.11516 154.986462
C 580.28353 154.986462 578.526672 155.714176 577.231514 157.009334
C 575.936356 158.304492 575.208642 160.06135 575.208642 161.89298
C 575.208642 163.724611 575.936356 165.481468 577.231514 166.776627
C 578.526672 168.071785 580.28353 168.799499 582.11516 168.799499
z
" clip-path="url(#pc43534a131)" style="fill: #b58018; fill-opacity: 0.75; stroke: #ffffff; stroke-opacity: 0.75; stroke-width: 0.6"/>
    <path d="M 567.79067 221.260055
C 569.525674 221.260055 571.18985 220.570731 572.416684 219.343897
C 573.643517 218.117064 574.332841 216.452888 574.332841 214.717884
C 574.332841 212.98288 573.643517 211.318704 572.416684 210.091871
C 571.18985 208.865038 569.525674 208.175713 567.79067 208.175713
C 566.055666 208.175713 564.39149 208.865038 563.164657 210.091871
C 561.937824 211.318704 561.248499 212.98288 561.248499 214.717884
C 561.248499 216.452888 561.937824 218.117064 563.164657 219.343897
C 564.39149 220.570731 566.055666 221.260055 567.79067 221.260055
z
" clip-path="url(#pc43534a131)" style="fill: #b58018; fill-opacity: 0.75; stroke: #ffffff; stroke-opacity: 0.75; stroke-width: 0.6"/>
    <path d="M 533.017162 173.149437
C 534.275131 173.149437 535.481746 172.649641 536.371264 171.760123
C 537.260782 170.870605 537.760578 169.66399 537.760578 168.406021
C 537.760578 167.148052 537.260782 165.941437 536.371264 165.051919
C 535.481746 164.162401 534.275131 163.662604 533.017162 163.662604
C 531.759193 163.662604 530.552578 164.162401 529.66306 165.051919
C 528.773542 165.941437 528.273745 167.148052 528.273745 168.406021
C 528.273745 169.66399 528.773542 170.870605 529.66306 171.760123
C 530.552578 172.649641 531.759193 173.149437 533.017162 173.149437
z
" clip-path="url(#pc43534a131)" style="fill: #b58018; fill-opacity: 0.75; stroke: #ffffff; stroke-opacity: 0.75; stroke-width: 0.6"/>
    <path d="M 577.215368 207.663627
C 578.832889 207.663627 580.384379 207.020979 581.528139 205.877218
C 582.6719 204.733458 583.314548 203.181968 583.314548 201.564447
C 583.314548 199.946925 582.6719 198.395435 581.528139 197.251675
C 580.384379 196.107914 578.832889 195.465266 577.215368 195.465266
C 575.597846 195.465266 574.046356 196.107914 572.902596 197.251675
C 571.758836 198.395435 571.116187 199.946925 571.116187 201.564447
C 571.116187 203.181968 571.758836 204.733458 572.902596 205.877218
C 574.046356 207.020979 575.597846 207.663627 577.215368 207.663627
z
" clip-path="url(#pc43534a131)" style="fill: #b58018; fill-opacity: 0.75; stroke: #ffffff; stroke-opacity: 0.75; stroke-width: 0.6"/>
    <path d="M 565.767714 313.549738
C 566.540907 313.549738 567.282536 313.242545 567.829267 312.695815
C 568.375997 312.149085 568.68319 311.407455 568.68319 310.634262
C 568.68319 309.861069 568.375997 309.119439 567.829267 308.572709
C 567.282536 308.025979 566.540907 307.718786 565.767714 307.718786
C 564.994521 307.718786 564.252891 308.025979 563.706161 308.572709
C 563.159431 309.119439 562.852238 309.861069 562.852238 310.634262
C 562.852238 311.407455 563.159431 312.149085 563.706161 312.695815
C 564.252891 313.242545 564.994521 313.549738 565.767714 313.549738
z
" clip-path="url(#pc43534a131)" style="fill: #b58018; fill-opacity: 0.75; stroke: #ffffff; stroke-opacity: 0.75; stroke-width: 0.6"/>
    <path d="M 559.63274 195.446419
C 561.423598 195.446419 563.141347 194.734903 564.407675 193.468576
C 565.674002 192.202249 566.385518 190.484499 566.385518 188.693641
C 566.385518 186.902784 565.674002 185.185034 564.407675 183.918707
C 563.141347 182.652379 561.423598 181.940864 559.63274 181.940864
C 557.841883 181.940864 556.124133 182.652379 554.857806 183.918707
C 553.591478 185.185034 552.879963 186.902784 552.879963 188.693641
C 552.879963 190.484499 553.591478 192.202249 554.857806 193.468576
C 556.124133 194.734903 557.841883 195.446419 559.63274 195.446419
z
" clip-path="url(#pc43534a131)" style="fill: #b58018; fill-opacity: 0.75; stroke: #ffffff; stroke-opacity: 0.75; stroke-width: 0.6"/>
    <path d="M 592.361595 259.902089
C 593.667568 259.902089 594.920229 259.38322 595.843692 258.459757
C 596.767155 257.536294 597.286024 256.283634 597.286024 254.97766
C 597.286024 253.671686 596.767155 252.419026 595.843692 251.495563
C 594.920229 250.5721 593.667568 250.053231 592.361595 250.053231
C 591.055621 250.053231 589.802961 250.5721 588.879498 251.495563
C 587.956035 252.419026 587.437166 253.671686 587.437166 254.97766
C 587.437166 256.283634 587.956035 257.536294 588.879498 258.459757
C 589.802961 259.38322 591.055621 259.902089 592.361595 259.902089
z
" clip-path="url(#pc43534a131)" style="fill: #b58018; fill-opacity: 0.75; stroke: #ffffff; stroke-opacity: 0.75; stroke-width: 0.6"/>
    <path d="M 604.009408 158.736175
C 605.841038 158.736175 607.597896 158.00846 608.893054 156.713302
C 610.188212 155.418144 610.915926 153.661286 610.915926 151.829656
C 610.915926 149.998026 610.188212 148.241168 608.893054 146.94601
C 607.597896 145.650852 605.841038 144.923137 604.009408 144.923137
C 602.177777 144.923137 600.420919 145.650852 599.125761 146.94601
C 597.830603 148.241168 597.102889 149.998026 597.102889 151.829656
C 597.102889 153.661286 597.830603 155.418144 599.125761 156.713302
C 600.420919 158.00846 602.177777 158.736175 604.009408 158.736175
z
" clip-path="url(#pc43534a131)" style="fill: #b58018; fill-opacity: 0.75; stroke: #ffffff; stroke-opacity: 0.75; stroke-width: 0.6"/>
    <path d="M 601.261168 179.448877
C 602.384766 179.448877 603.462495 179.002467 604.256999 178.207964
C 605.051502 177.41346 605.497912 176.335731 605.497912 175.212133
C 605.497912 174.088536 605.051502 173.010806 604.256999 172.216303
C 603.462495 171.421799 602.384766 170.975389 601.261168 170.975389
C 600.13757 170.975389 599.059841 171.421799 598.265338 172.216303
C 597.470834 173.010806 597.024424 174.088536 597.024424 175.212133
C 597.024424 176.335731 597.470834 177.41346 598.265338 178.207964
C 599.059841 179.002467 600.13757 179.448877 601.261168 179.448877
z
" clip-path="url(#pc43534a131)" style="fill: #b58018; fill-opacity: 0.75; stroke: #ffffff; stroke-opacity: 0.75; stroke-width: 0.6"/>
   </g>
   <g id="PathCollection_4">
    <path d="M 692.336897 278.012978
C 693.242091 278.012978 694.110332 277.65334 694.750401 277.013272
C 695.39047 276.373203 695.750107 275.504962 695.750107 274.599768
C 695.750107 273.694574 695.39047 272.826333 694.750401 272.186264
C 694.110332 271.546196 693.242091 271.186558 692.336897 271.186558
C 691.431703 271.186558 690.563462 271.546196 689.923394 272.186264
C 689.283325 272.826333 688.923688 273.694574 688.923688 274.599768
C 688.923688 275.504962 689.283325 276.373203 689.923394 277.013272
C 690.563462 277.65334 691.431703 278.012978 692.336897 278.012978
z
" clip-path="url(#pc43534a131)" style="fill: #c35264; fill-opacity: 0.75; stroke: #ffffff; stroke-opacity: 0.75; stroke-width: 0.6"/>
    <path d="M 603.583683 263.698072
C 604.447122 263.698072 605.275312 263.355024 605.885856 262.744481
C 606.496399 262.133937 606.839447 261.305747 606.839447 260.442308
C 606.839447 259.578869 606.496399 258.750678 605.885856 258.140135
C 605.275312 257.529592 604.447122 257.186544 603.583683 257.186544
C 602.720244 257.186544 601.892053 257.529592 601.28151 258.140135
C 600.670967 258.750678 600.327919 259.578869 600.327919 260.442308
C 600.327919 261.305747 600.670967 262.133937 601.28151 262.744481
C 601.892053 263.355024 602.720244 263.698072 603.583683 263.698072
z
" clip-path="url(#pc43534a131)" style="fill: #c35264; fill-opacity: 0.75; stroke: #ffffff; stroke-opacity: 0.75; stroke-width: 0.6"/>
    <path d="M 624.832469 238.220439
C 625.723962 238.220439 626.579061 237.866245 627.209442 237.235864
C 627.839823 236.605484 628.194016 235.750384 628.194016 234.858891
C 628.194016 233.967399 627.839823 233.112299 627.209442 232.481919
C 626.579061 231.851538 625.723962 231.497344 624.832469 231.497344
C 623.940976 231.497344 623.085877 231.851538 622.455496 232.481919
C 621.825116 233.112299 621.470922 233.967399 621.470922 234.858891
C 621.470922 235.750384 621.825116 236.605484 622.455496 237.235864
C 623.085877 237.866245 623.940976 238.220439 624.832469 238.220439
z
" clip-path="url(#pc43534a131)" style="fill: #c35264; fill-opacity: 0.75; stroke: #ffffff; stroke-opacity: 0.75; stroke-width: 0.6"/>
    <path d="M 670.266959 242.083384
C 671.322787 242.083384 672.335514 241.663899 673.082097 240.917316
C 673.82868 240.170733 674.248165 239.158006 674.248165 238.102178
C 674.248165 237.04635 673.82868 236.033624 673.082097 235.28704
C 672.335514 234.540457 671.322787 234.120972 670.266959 234.120972
C 669.211131 234.120972 668.198405 234.540457 667.451822 235.28704
C 666.705238 236.033624 666.285753 237.04635 666.285753 238.102178
C 666.285753 239.158006 666.705238 240.170733 667.451822 240.917316
C 668.198405 241.663899 669.211131 242.083384 670.266959 242.083384
z
" clip-path="url(#pc43534a131)" style="fill: #c35264; fill-opacity: 0.75; stroke: #ffffff; stroke-opacity: 0.75; stroke-width: 0.6"/>
    <path d="M 670.229044 217.347019
C 672.019902 217.347019 673.737651 216.635504 675.003979 215.369177
C 676.270306 214.102849 676.981821 212.3851 676.981821 210.594242
C 676.981821 208.803385 676.270306 207.085635 675.003979 205.819308
C 673.737651 204.55298 672.019902 203.841465 670.229044 203.841465
C 668.438187 203.841465 666.720437 204.55298 665.45411 205.819308
C 664.187782 207.085635 663.476267 208.803385 663.476267 210.594242
C 663.476267 212.3851 664.187782 214.102849 665.45411 215.369177
C 666.720437 216.635504 668.438187 217.347019 670.229044 217.347019
z
" clip-path="url(#pc43534a131)" style="fill: #c35264; fill-opacity: 0.75; stroke: #ffffff; stroke-opacity: 0.75; stroke-width: 0.6"/>
    <path d="M 709.225004 205.495842
C 710.960008 205.495842 712.624184 204.806518 713.851017 203.579685
C 715.07785 202.352852 715.767175 200.688675 715.767175 198.953671
C 715.767175 197.218667 715.07785 195.554491 713.851017 194.327658
C 712.624184 193.100825 710.960008 192.4115 709.225004 192.4115
C 707.49 192.4115 705.825824 193.100825 704.59899 194.327658
C 703.372157 195.554491 702.682833 197.218667 702.682833 198.953671
C 702.682833 200.688675 703.372157 202.352852 704.59899 203.579685
C 705.825824 204.806518 707.49 205.495842 709.225004 205.495842
z
" clip-path="url(#pc43534a131)" style="fill: #c35264; fill-opacity: 0.75; stroke: #ffffff; stroke-opacity: 0.75; stroke-width: 0.6"/>
    <path d="M 651.289229 262.223574
C 652.260032 262.223574 653.191204 261.83787 653.877665 261.151409
C 654.564127 260.464948 654.949831 259.533776 654.949831 258.562973
C 654.949831 257.592171 654.564127 256.660999 653.877665 255.974537
C 653.191204 255.288076 652.260032 254.902372 651.289229 254.902372
C 650.318427 254.902372 649.387255 255.288076 648.700794 255.974537
C 648.014332 256.660999 647.628628 257.592171 647.628628 258.562973
C 647.628628 259.533776 648.014332 260.464948 648.700794 261.151409
C 649.387255 261.83787 650.318427 262.223574 651.289229 262.223574
z
" clip-path="url(#pc43534a131)" style="fill: #c35264; fill-opacity: 0.75; stroke: #ffffff; stroke-opacity: 0.75; stroke-width: 0.6"/>
    <path d="M 648.989914 186.294671
C 650.295888 186.294671 651.548548 185.775802 652.472011 184.85234
C 653.395474 183.928877 653.914343 182.676216 653.914343 181.370242
C 653.914343 180.064269 653.395474 178.811608 652.472011 177.888145
C 651.548548 176.964682 650.295888 176.445814 648.989914 176.445814
C 647.68394 176.445814 646.43128 176.964682 645.507817 177.888145
C 644.584354 178.811608 644.065485 180.064269 644.065485 181.370242
C 644.065485 182.676216 644.584354 183.928877 645.507817 184.85234
C 646.43128 185.775802 647.68394 186.294671 648.989914 186.294671
z
" clip-path="url(#pc43534a131)" style="fill: #c35264; fill-opacity: 0.75; stroke: #ffffff; stroke-opacity: 0.75; stroke-width: 0.6"/>
    <path d="M 710.383186 186.025769
C 711.641155 186.025769 712.84777 185.525973 713.737288 184.636455
C 714.626806 183.746937 715.126602 182.540322 715.126602 181.282353
C 715.126602 180.024384 714.626806 178.817769 713.737288 177.928251
C 712.84777 177.038733 711.641155 176.538936 710.383186 176.538936
C 709.125217 176.538936 707.918602 177.038733 707.029084 177.928251
C 706.139566 178.817769 705.639769 180.024384 705.639769 181.282353
C 705.639769 182.540322 706.139566 183.746937 707.029084 184.636455
C 707.918602 185.525973 709.125217 186.025769 710.383186 186.025769
z
" clip-path="url(#pc43534a131)" style="fill: #c35264; fill-opacity: 0.75; stroke: #ffffff; stroke-opacity: 0.75; stroke-width: 0.6"/>
    <path d="M 699.079501 212.694671
C 700.85656 212.694671 702.561074 211.988638 703.817645 210.732068
C 705.074215 209.475497 705.780248 207.770983 705.780248 205.993924
C 705.780248 204.216866 705.074215 202.512352 703.817645 201.255781
C 702.561074 199.999211 700.85656 199.293178 699.079501 199.293178
C 697.302443 199.293178 695.597929 199.999211 694.341358 201.255781
C 693.084788 202.512352 692.378755 204.216866 692.378755 205.993924
C 692.378755 207.770983 693.084788 209.475497 694.341358 210.732068
C 695.597929 211.988638 697.302443 212.694671 699.079501 212.694671
z
" clip-path="url(#pc43534a131)" style="fill: #c35264; fill-opacity: 0.75; stroke: #ffffff; stroke-opacity: 0.75; stroke-width: 0.6"/>
    <path d="M 713.832901 195.966046
C 715.609959 195.966046 717.314473 195.260013 718.571044 194.003443
C 719.827614 192.746873 720.533647 191.042358 720.533647 189.2653
C 720.533647 187.488241 719.827614 185.783727 718.571044 184.527157
C 717.314473 183.270586 715.609959 182.564553 713.832901 182.564553
C 712.055842 182.564553 710.351328 183.270586 709.094757 184.527157
C 707.838187 185.783727 707.132154 187.488241 707.132154 189.2653
C 707.132154 191.042358 707.838187 192.746873 709.094757 194.003443
C 710.351328 195.260013 712.055842 195.966046 713.832901 195.966046
z
" clip-path="url(#pc43534a131)" style="fill: #c35264; fill-opacity: 0.75; stroke: #ffffff; stroke-opacity: 0.75; stroke-width: 0.6"/>
    <path d="M 661.020907 194.622737
C 662.797966 194.622737 664.50248 193.916704 665.759051 192.660133
C 667.015621 191.403563 667.721654 189.699049 667.721654 187.92199
C 667.721654 186.144932 667.015621 184.440417 665.759051 183.183847
C 664.50248 181.927277 662.797966 181.221244 661.020907 181.221244
C 659.243849 181.221244 657.539335 181.927277 656.282764 183.183847
C 655.026194 184.440417 654.320161 186.144932 654.320161 187.92199
C 654.320161 189.699049 655.026194 191.403563 656.282764 192.660133
C 657.539335 193.916704 659.243849 194.622737 661.020907 194.622737
z
" clip-path="url(#pc43534a131)" style="fill: #c35264; fill-opacity: 0.75; stroke: #ffffff; stroke-opacity: 0.75; stroke-width: 0.6"/>
    <path d="M 729.72 163.339825
C 731.337522 163.339825 732.889011 162.697177 734.032772 161.553416
C 735.176532 160.409656 735.81918 158.858166 735.81918 157.240645
C 735.81918 155.623123 735.176532 154.071633 734.032772 152.927873
C 732.889011 151.784112 731.337522 151.141464 729.72 151.141464
C 728.102478 151.141464 726.550989 151.784112 725.407228 152.927873
C 724.263468 154.071633 723.62082 155.623123 723.62082 157.240645
C 723.62082 158.858166 724.263468 160.409656 725.407228 161.553416
C 726.550989 162.697177 728.102478 163.339825 729.72 163.339825
z
" clip-path="url(#pc43534a131)" style="fill: #c35264; fill-opacity: 0.75; stroke: #ffffff; stroke-opacity: 0.75; stroke-width: 0.6"/>
    <path d="M 683.778077 195.938749
C 685.609707 195.938749 687.366565 195.211034 688.661723 193.915876
C 689.956881 192.620718 690.684596 190.86386 690.684596 189.03223
C 690.684596 187.2006 689.956881 185.443742 688.661723 184.148584
C 687.366565 182.853426 685.609707 182.125711 683.778077 182.125711
C 681.946447 182.125711 680.189589 182.853426 678.894431 184.148584
C 677.599273 185.443742 676.871558 187.2006 676.871558 189.03223
C 676.871558 190.86386 677.599273 192.620718 678.894431 193.915876
C 680.189589 195.211034 681.946447 195.938749 683.778077 195.938749
z
" clip-path="url(#pc43534a131)" style="fill: #c35264; fill-opacity: 0.75; stroke: #ffffff; stroke-opacity: 0.75; stroke-width: 0.6"/>
    <path d="M 661.776269 220.569906
C 663.607899 220.569906 665.364757 219.842192 666.659915 218.547034
C 667.955073 217.251876 668.682787 215.495018 668.682787 213.663388
C 668.682787 211.831758 667.955073 210.0749 666.659915 208.779742
C 665.364757 207.484584 663.607899 206.756869 661.776269 206.756869
C 659.944639 206.756869 658.187781 207.484584 656.892623 208.779742
C 655.597465 210.0749 654.86975 211.831758 654.86975 213.663388
C 654.86975 215.495018 655.597465 217.251876 656.892623 218.547034
C 658.187781 219.842192 659.944639 220.569906 661.776269 220.569906
z
" clip-path="url(#pc43534a131)" style="fill: #c35264; fill-opacity: 0.75; stroke: #ffffff; stroke-opacity: 0.75; stroke-width: 0.6"/>
    <path d="M 703.191301 224.07414
C 704.665506 224.07414 706.07953 223.488432 707.12195 222.446012
C 708.16437 221.403592 708.750078 219.989568 708.750078 218.515363
C 708.750078 217.041158 708.16437 215.627135 707.12195 214.584714
C 706.07953 213.542294 704.665506 212.956586 703.191301 212.956586
C 701.717096 212.956586 700.303073 213.542294 699.260652 214.584714
C 698.218232 215.627135 697.632524 217.041158 697.632524 218.515363
C 697.632524 219.989568 698.218232 221.403592 699.260652 222.446012
C 700.303073 223.488432 701.717096 224.07414 703.191301 224.07414
z
" clip-path="url(#pc43534a131)" style="fill: #c35264; fill-opacity: 0.75; stroke: #ffffff; stroke-opacity: 0.75; stroke-width: 0.6"/>
    <path d="M 716.839118 167.226492
C 717.962715 167.226492 719.040444 166.780082 719.834948 165.985579
C 720.629451 165.191075 721.075862 164.113346 721.075862 162.989748
C 721.075862 161.86615 720.629451 160.788421 719.834948 159.993918
C 719.040444 159.199414 717.962715 158.753004 716.839118 158.753004
C 715.71552 158.753004 714.637791 159.199414 713.843287 159.993918
C 713.048784 160.788421 712.602373 161.86615 712.602373 162.989748
C 712.602373 164.113346 713.048784 165.191075 713.843287 165.985579
C 714.637791 166.780082 715.71552 167.226492 716.839118 167.226492
z
" clip-path="url(#pc43534a131)" style="fill: #c35264; fill-opacity: 0.75; stroke: #ffffff; stroke-opacity: 0.75; stroke-width: 0.6"/>
    <path d="M 672.514001 216.984695
C 673.391579 216.984695 674.233332 216.63603 674.853873 216.015489
C 675.474414 215.394947 675.82308 214.553195 675.82308 213.675617
C 675.82308 212.798039 675.474414 211.956286 674.853873 211.335745
C 674.233332 210.715204 673.391579 210.366538 672.514001 210.366538
C 671.636423 210.366538 670.794671 210.715204 670.174129 211.335745
C 669.553588 211.956286 669.204923 212.798039 669.204923 213.675617
C 669.204923 214.553195 669.553588 215.394947 670.174129 216.015489
C 670.794671 216.63603 671.636423 216.984695 672.514001 216.984695
z
" clip-path="url(#pc43534a131)" style="fill: #c35264; fill-opacity: 0.75; stroke: #ffffff; stroke-opacity: 0.75; stroke-width: 0.6"/>
    <path d="M 673.588758 196.892014
C 675.011987 196.892014 676.377116 196.326559 677.383491 195.320184
C 678.389866 194.313809 678.955321 192.94868 678.955321 191.525451
C 678.955321 190.102222 678.389866 188.737093 677.383491 187.730718
C 676.377116 186.724343 675.011987 186.158888 673.588758 186.158888
C 672.165529 186.158888 670.8004 186.724343 669.794025 187.730718
C 668.78765 188.737093 668.222195 190.102222 668.222195 191.525451
C 668.222195 192.94868 668.78765 194.313809 669.794025 195.320184
C 670.8004 196.326559 672.165529 196.892014 673.588758 196.892014
z
" clip-path="url(#pc43534a131)" style="fill: #c35264; fill-opacity: 0.75; stroke: #ffffff; stroke-opacity: 0.75; stroke-width: 0.6"/>
   </g>
   <g id="PathCollection_5">
    <path d="M 139.340363 242.576261
C 140.636878 242.576261 141.880466 242.06115 142.797241 241.144376
C 143.714015 240.227601 144.229126 238.984013 144.229126 237.687498
C 144.229126 236.390983 143.714015 235.147396 142.797241 234.230621
C 141.880466 233.313847 140.636878 232.798736 139.340363 232.798736
C 138.043848 232.798736 136.800261 233.313847 135.883486 234.230621
C 134.966712 235.147396 134.451601 236.390983 134.451601 237.687498
C 134.451601 238.984013 134.966712 240.227601 135.883486 241.144376
C 136.800261 242.06115 138.043848 242.576261 139.340363 242.576261
z
" clip-path="url(#pc43534a131)" style="fill: #8857ad; fill-opacity: 0.75; stroke: #ffffff; stroke-opacity: 0.75; stroke-width: 0.6"/>
    <path d="M 127.207793 153.360517
C 128.298033 153.360517 129.343766 152.92736 130.114681 152.156445
C 130.885597 151.385529 131.318754 150.339796 131.318754 149.249556
C 131.318754 148.159317 130.885597 147.113584 130.114681 146.342668
C 129.343766 145.571752 128.298033 145.138595 127.207793 145.138595
C 126.117553 145.138595 125.07182 145.571752 124.300905 146.342668
C 123.529989 147.113584 123.096832 148.159317 123.096832 149.249556
C 123.096832 150.339796 123.529989 151.385529 124.300905 152.156445
C 125.07182 152.92736 126.117553 153.360517 127.207793 153.360517
z
" clip-path="url(#pc43534a131)" style="fill: #8857ad; fill-opacity: 0.75; stroke: #ffffff; stroke-opacity: 0.75; stroke-width: 0.6"/>
    <path d="M 156.89949 246.73257
C 158.157459 246.73257 159.364074 246.232774 160.253592 245.343255
C 161.14311 244.453737 161.642907 243.247122 161.642907 241.989153
C 161.642907 240.731185 161.14311 239.52457 160.253592 238.635051
C 159.364074 237.745533 158.157459 237.245737 156.89949 237.245737
C 155.641521 237.245737 154.434907 237.745533 153.545388 238.635051
C 152.65587 239.52457 152.156074 240.731185 152.156074 241.989153
C 152.156074 243.247122 152.65587 244.453737 153.545388 245.343255
C 154.434907 246.232774 155.641521 246.73257 156.89949 246.73257
z
" clip-path="url(#pc43534a131)" style="fill: #8857ad; fill-opacity: 0.75; stroke: #ffffff; stroke-opacity: 0.75; stroke-width: 0.6"/>
    <path d="M 141.335641 182.195533
C 142.267633 182.195533 143.161578 181.825248 143.820595 181.166231
C 144.479613 180.507213 144.849897 179.613268 144.849897 178.681276
C 144.849897 177.749284 144.479613 176.855339 143.820595 176.196321
C 143.161578 175.537303 142.267633 175.167019 141.335641 175.167019
C 140.403649 175.167019 139.509704 175.537303 138.850686 176.196321
C 138.191668 176.855339 137.821384 177.749284 137.821384 178.681276
C 137.821384 179.613268 138.191668 180.507213 138.850686 181.166231
C 139.509704 181.825248 140.403649 182.195533 141.335641 182.195533
z
" clip-path="url(#pc43534a131)" style="fill: #8857ad; fill-opacity: 0.75; stroke: #ffffff; stroke-opacity: 0.75; stroke-width: 0.6"/>
    <path d="M 139.734218 312.259057
C 140.597657 312.259057 141.425848 311.916009 142.036391 311.305465
C 142.646934 310.694922 142.989982 309.866731 142.989982 309.003293
C 142.989982 308.139854 142.646934 307.311663 142.036391 306.70112
C 141.425848 306.090576 140.597657 305.747528 139.734218 305.747528
C 138.870779 305.747528 138.042589 306.090576 137.432045 306.70112
C 136.821502 307.311663 136.478454 308.139854 136.478454 309.003293
C 136.478454 309.866731 136.821502 310.694922 137.432045 311.305465
C 138.042589 311.916009 138.870779 312.259057 139.734218 312.259057
z
" clip-path="url(#pc43534a131)" style="fill: #8857ad; fill-opacity: 0.75; stroke: #ffffff; stroke-opacity: 0.75; stroke-width: 0.6"/>
    <path d="M 132.876022 206.976099
C 134.181996 206.976099 135.434656 206.45723 136.358119 205.533767
C 137.281582 204.610304 137.800451 203.357644 137.800451 202.05167
C 137.800451 200.745696 137.281582 199.493036 136.358119 198.569573
C 135.434656 197.64611 134.181996 197.127241 132.876022 197.127241
C 131.570048 197.127241 130.317388 197.64611 129.393925 198.569573
C 128.470462 199.493036 127.951593 200.745696 127.951593 202.05167
C 127.951593 203.357644 128.470462 204.610304 129.393925 205.533767
C 130.317388 206.45723 131.570048 206.976099 132.876022 206.976099
z
" clip-path="url(#pc43534a131)" style="fill: #8857ad; fill-opacity: 0.75; stroke: #ffffff; stroke-opacity: 0.75; stroke-width: 0.6"/>
    <path d="M 150.845359 134.470788
C 152.622418 134.470788 154.326932 133.764755 155.583502 132.508184
C 156.840072 131.251614 157.546105 129.5471 157.546105 127.770041
C 157.546105 125.992983 156.840072 124.288468 155.583502 123.031898
C 154.326932 121.775328 152.622418 121.069295 150.845359 121.069295
C 149.0683 121.069295 147.363786 121.775328 146.107216 123.031898
C 144.850646 124.288468 144.144613 125.992983 144.144613 127.770041
C 144.144613 129.5471 144.850646 131.251614 146.107216 132.508184
C 147.363786 133.764755 149.0683 134.470788 150.845359 134.470788
z
" clip-path="url(#pc43534a131)" style="fill: #8857ad; fill-opacity: 0.75; stroke: #ffffff; stroke-opacity: 0.75; stroke-width: 0.6"/>
    <path d="M 141.584082 282.834152
C 143.058287 282.834152 144.47231 282.248444 145.51473 281.206024
C 146.557151 280.163604 147.142859 278.74958 147.142859 277.275375
C 147.142859 275.80117 146.557151 274.387147 145.51473 273.344726
C 144.47231 272.302306 143.058287 271.716598 141.584082 271.716598
C 140.109877 271.716598 138.695853 272.302306 137.653433 273.344726
C 136.611013 274.387147 136.025305 275.80117 136.025305 277.275375
C 136.025305 278.74958 136.611013 280.163604 137.653433 281.206024
C 138.695853 282.248444 140.109877 282.834152 141.584082 282.834152
z
" clip-path="url(#pc43534a131)" style="fill: #8857ad; fill-opacity: 0.75; stroke: #ffffff; stroke-opacity: 0.75; stroke-width: 0.6"/>
    <path d="M 150.222808 143.727076
C 151.500195 143.727076 152.725436 143.219564 153.628685 142.316315
C 154.531934 141.413066 155.039446 140.187825 155.039446 138.910438
C 155.039446 137.63305 154.531934 136.40781 153.628685 135.50456
C 152.725436 134.601311 151.500195 134.0938 150.222808 134.0938
C 148.945421 134.0938 147.72018 134.601311 146.816931 135.50456
C 145.913681 136.40781 145.40617 137.63305 145.40617 138.910438
C 145.40617 140.187825 145.913681 141.413066 146.816931 142.316315
C 147.72018 143.219564 148.945421 143.727076 150.222808 143.727076
z
" clip-path="url(#pc43534a131)" style="fill: #8857ad; fill-opacity: 0.75; stroke: #ffffff; stroke-opacity: 0.75; stroke-width: 0.6"/>
    <path d="M 132.182958 376.970501
C 133.571164 376.970501 134.9027 376.418961 135.88431 375.437351
C 136.865919 374.455741 137.417459 373.124206 137.417459 371.736
C 137.417459 370.347794 136.865919 369.016259 135.88431 368.034649
C 134.9027 367.053039 133.571164 366.501499 132.182958 366.501499
C 130.794753 366.501499 129.463217 367.053039 128.481607 368.034649
C 127.499998 369.016259 126.948458 370.347794 126.948458 371.736
C 126.948458 373.124206 127.499998 374.455741 128.481607 375.437351
C 129.463217 376.418961 130.794753 376.970501 132.182958 376.970501
z
" clip-path="url(#pc43534a131)" style="fill: #8857ad; fill-opacity: 0.75; stroke: #ffffff; stroke-opacity: 0.75; stroke-width: 0.6"/>
    <path d="M 137.754043 248.31775
C 139.050558 248.31775 140.294145 247.80264 141.21092 246.885865
C 142.127695 245.96909 142.642805 244.725503 142.642805 243.428988
C 142.642805 242.132473 142.127695 240.888885 141.21092 239.972111
C 140.294145 239.055336 139.050558 238.540225 137.754043 238.540225
C 136.457528 238.540225 135.21394 239.055336 134.297166 239.972111
C 133.380391 240.888885 132.86528 242.132473 132.86528 243.428988
C 132.86528 244.725503 133.380391 245.96909 134.297166 246.885865
C 135.21394 247.80264 136.457528 248.31775 137.754043 248.31775
z
" clip-path="url(#pc43534a131)" style="fill: #8857ad; fill-opacity: 0.75; stroke: #ffffff; stroke-opacity: 0.75; stroke-width: 0.6"/>
    <path d="M 139.536344 237.38504
C 140.670843 237.38504 141.759029 236.934299 142.561241 236.132087
C 143.363453 235.329875 143.814194 234.241689 143.814194 233.10719
C 143.814194 231.972691 143.363453 230.884505 142.561241 230.082293
C 141.759029 229.280081 140.670843 228.82934 139.536344 228.82934
C 138.401845 228.82934 137.31366 229.280081 136.511448 230.082293
C 135.709236 230.884505 135.258494 231.972691 135.258494 233.10719
C 135.258494 234.241689 135.709236 235.329875 136.511448 236.132087
C 137.31366 236.934299 138.401845 237.38504 139.536344 237.38504
z
" clip-path="url(#pc43534a131)" style="fill: #8857ad; fill-opacity: 0.75; stroke: #ffffff; stroke-opacity: 0.75; stroke-width: 0.6"/>
    <path d="M 121.397773 186.350982
C 122.275351 186.350982 123.117103 186.002317 123.737645 185.381775
C 124.358186 184.761234 124.706851 183.919482 124.706851 183.041904
C 124.706851 182.164326 124.358186 181.322573 123.737645 180.702032
C 123.117103 180.081491 122.275351 179.732825 121.397773 179.732825
C 120.520195 179.732825 119.678442 180.081491 119.057901 180.702032
C 118.43736 181.322573 118.088695 182.164326 118.088695 183.041904
C 118.088695 183.919482 118.43736 184.761234 119.057901 185.381775
C 119.678442 186.002317 120.520195 186.350982 121.397773 186.350982
z
" clip-path="url(#pc43534a131)" style="fill: #8857ad; fill-opacity: 0.75; stroke: #ffffff; stroke-opacity: 0.75; stroke-width: 0.6"/>
    <path d="M 160.398145 199.669561
C 162.229775 199.669561 163.986633 198.941846 165.281791 197.646688
C 166.576949 196.35153 167.304664 194.594672 167.304664 192.763042
C 167.304664 190.931412 166.576949 189.174554 165.281791 187.879396
C 163.986633 186.584238 162.229775 185.856523 160.398145 185.856523
C 158.566515 185.856523 156.809657 186.584238 155.514499 187.879396
C 154.219341 189.174554 153.491626 190.931412 153.491626 192.763042
C 153.491626 194.594672 154.219341 196.35153 155.514499 197.646688
C 156.809657 198.941846 158.566515 199.669561 160.398145 199.669561
z
" clip-path="url(#pc43534a131)" style="fill: #8857ad; fill-opacity: 0.75; stroke: #ffffff; stroke-opacity: 0.75; stroke-width: 0.6"/>
    <path d="M 137.938275 195.90447
C 139.176521 195.90447 140.364218 195.41251 141.23979 194.536938
C 142.115362 193.661366 142.607322 192.473669 142.607322 191.235423
C 142.607322 189.997177 142.115362 188.80948 141.23979 187.933908
C 140.364218 187.058336 139.176521 186.566376 137.938275 186.566376
C 136.70003 186.566376 135.512333 187.058336 134.636761 187.933908
C 133.761189 188.80948 133.269228 189.997177 133.269228 191.235423
C 133.269228 192.473669 133.761189 193.661366 134.636761 194.536938
C 135.512333 195.41251 136.70003 195.90447 137.938275 195.90447
z
" clip-path="url(#pc43534a131)" style="fill: #8857ad; fill-opacity: 0.75; stroke: #ffffff; stroke-opacity: 0.75; stroke-width: 0.6"/>
    <path d="M 117.72 111.190895
C 118.508951 111.190895 119.265696 110.877441 119.823568 110.319568
C 120.381441 109.761696 120.694895 109.004951 120.694895 108.216
C 120.694895 107.427049 120.381441 106.670304 119.823568 106.112432
C 119.265696 105.554559 118.508951 105.241105 117.72 105.241105
C 116.931049 105.241105 116.174304 105.554559 115.616432 106.112432
C 115.058559 106.670304 114.745105 107.427049 114.745105 108.216
C 114.745105 109.004951 115.058559 109.761696 115.616432 110.319568
C 116.174304 110.877441 116.931049 111.190895 117.72 111.190895
z
" clip-path="url(#pc43534a131)" style="fill: #8857ad; fill-opacity: 0.75; stroke: #ffffff; stroke-opacity: 0.75; stroke-width: 0.6"/>
    <path d="M 141.783225 240.713369
C 142.646664 240.713369 143.474855 240.370321 144.085398 239.759778
C 144.695941 239.149234 145.038989 238.321044 145.038989 237.457605
C 145.038989 236.594166 144.695941 235.765975 144.085398 235.155432
C 143.474855 234.544889 142.646664 234.201841 141.783225 234.201841
C 140.919786 234.201841 140.091596 234.544889 139.481052 235.155432
C 138.870509 235.765975 138.527461 236.594166 138.527461 237.457605
C 138.527461 238.321044 138.870509 239.149234 139.481052 239.759778
C 140.091596 240.370321 140.919786 240.713369 141.783225 240.713369
z
" clip-path="url(#pc43534a131)" style="fill: #8857ad; fill-opacity: 0.75; stroke: #ffffff; stroke-opacity: 0.75; stroke-width: 0.6"/>
    <path d="M 159.647088 257.064128
C 160.981036 257.064128 162.260529 256.534145 163.203772 255.590901
C 164.147016 254.647658 164.676999 253.368165 164.676999 252.034218
C 164.676999 250.70027 164.147016 249.420777 163.203772 248.477534
C 162.260529 247.53429 160.981036 247.004307 159.647088 247.004307
C 158.31314 247.004307 157.033648 247.53429 156.090404 248.477534
C 155.147161 249.420777 154.617178 250.70027 154.617178 252.034218
C 154.617178 253.368165 155.147161 254.647658 156.090404 255.590901
C 157.033648 256.534145 158.31314 257.064128 159.647088 257.064128
z
" clip-path="url(#pc43534a131)" style="fill: #8857ad; fill-opacity: 0.75; stroke: #ffffff; stroke-opacity: 0.75; stroke-width: 0.6"/>
    <path d="M 146.669324 254.956826
C 148.446383 254.956826 150.150897 254.250793 151.407467 252.994223
C 152.664037 251.737653 153.37007 250.033139 153.37007 248.25608
C 153.37007 246.479021 152.664037 244.774507 151.407467 243.517937
C 150.150897 242.261367 148.446383 241.555334 146.669324 241.555334
C 144.892265 241.555334 143.187751 242.261367 141.931181 243.517937
C 140.674611 244.774507 139.968578 246.479021 139.968578 248.25608
C 139.968578 250.033139 140.674611 251.737653 141.931181 252.994223
C 143.187751 254.250793 144.892265 254.956826 146.669324 254.956826
z
" clip-path="url(#pc43534a131)" style="fill: #8857ad; fill-opacity: 0.75; stroke: #ffffff; stroke-opacity: 0.75; stroke-width: 0.6"/>
    <path d="M 145.634697 229.439108
C 147.411756 229.439108 149.11627 228.733075 150.372841 227.476505
C 151.629411 226.219935 152.335444 224.515421 152.335444 222.738362
C 152.335444 220.961303 151.629411 219.256789 150.372841 218.000219
C 149.11627 216.743649 147.411756 216.037616 145.634697 216.037616
C 143.857639 216.037616 142.153125 216.743649 140.896554 218.000219
C 139.639984 219.256789 138.933951 220.961303 138.933951 222.738362
C 138.933951 224.515421 139.639984 226.219935 140.896554 227.476505
C 142.153125 228.733075 143.857639 229.439108 145.634697 229.439108
z
" clip-path="url(#pc43534a131)" style="fill: #8857ad; fill-opacity: 0.75; stroke: #ffffff; stroke-opacity: 0.75; stroke-width: 0.6"/>
    <path d="M 148.926209 197.567599
C 149.831403 197.567599 150.699644 197.207962 151.339713 196.567893
C 151.979781 195.927825 152.339419 195.059583 152.339419 194.15439
C 152.339419 193.249196 151.979781 192.380955 151.339713 191.740886
C 150.699644 191.100817 149.831403 190.74118 148.926209 190.74118
C 148.021015 190.74118 147.152774 191.100817 146.512705 191.740886
C 145.872637 192.380955 145.512999 193.249196 145.512999 194.15439
C 145.512999 195.059583 145.872637 195.927825 146.512705 196.567893
C 147.152774 197.207962 148.021015 197.567599 148.926209 197.567599
z
" clip-path="url(#pc43534a131)" style="fill: #8857ad; fill-opacity: 0.75; stroke: #ffffff; stroke-opacity: 0.75; stroke-width: 0.6"/>
    <path d="M 145.428279 164.311886
C 147.141869 164.311886 148.785505 163.63107 149.997196 162.419379
C 151.208887 161.207688 151.889703 159.564052 151.889703 157.850462
C 151.889703 156.136872 151.208887 154.493236 149.997196 153.281545
C 148.785505 152.069854 147.141869 151.389038 145.428279 151.389038
C 143.71469 151.389038 142.071054 152.069854 140.859363 153.281545
C 139.647672 154.493236 138.966855 156.136872 138.966855 157.850462
C 138.966855 159.564052 139.647672 161.207688 140.859363 162.419379
C 142.071054 163.63107 143.71469 164.311886 145.428279 164.311886
z
" clip-path="url(#pc43534a131)" style="fill: #8857ad; fill-opacity: 0.75; stroke: #ffffff; stroke-opacity: 0.75; stroke-width: 0.6"/>
    <path d="M 135.540082 149.867821
C 136.535918 149.867821 137.491102 149.472171 138.195265 148.768008
C 138.899428 148.063845 139.295078 147.108661 139.295078 146.112825
C 139.295078 145.116988 138.899428 144.161804 138.195265 143.457641
C 137.491102 142.753478 136.535918 142.357828 135.540082 142.357828
C 134.544245 142.357828 133.589061 142.753478 132.884898 143.457641
C 132.180735 144.161804 131.785085 145.116988 131.785085 146.112825
C 131.785085 147.108661 132.180735 148.063845 132.884898 148.768008
C 133.589061 149.472171 134.544245 149.867821 135.540082 149.867821
z
" clip-path="url(#pc43534a131)" style="fill: #8857ad; fill-opacity: 0.75; stroke: #ffffff; stroke-opacity: 0.75; stroke-width: 0.6"/>
    <path d="M 137.286551 219.380209
C 138.42105 219.380209 139.509236 218.929467 140.311448 218.127255
C 141.11366 217.325043 141.564401 216.236858 141.564401 215.102359
C 141.564401 213.96786 141.11366 212.879674 140.311448 212.077462
C 139.509236 211.27525 138.42105 210.824509 137.286551 210.824509
C 136.152052 210.824509 135.063866 211.27525 134.261654 212.077462
C 133.459442 212.879674 133.008701 213.96786 133.008701 215.102359
C 133.008701 216.236858 133.459442 217.325043 134.261654 218.127255
C 135.063866 218.929467 136.152052 219.380209 137.286551 219.380209
z
" clip-path="url(#pc43534a131)" style="fill: #8857ad; fill-opacity: 0.75; stroke: #ffffff; stroke-opacity: 0.75; stroke-width: 0.6"/>
   </g>
   <g id="matplotlib.axis_1">
    <g id="xtick_1">
     <g id="line2d_1">
      <defs>
       <path id="m745a0373ff" d="M 0 0
L 0 3.5
" style="stroke: #475467; stroke-width: 0.8"/>
      </defs>
      <g>
       <use xlink:href="#m745a0373ff" x="177.381288" y="384.912" style="fill: #475467; stroke: #475467; stroke-width: 0.8"/>
      </g>
     </g>
     <g id="text_1">
      <text style="font-size: 11px; font-family: 'DejaVu Sans'; text-anchor: middle; fill: #475467" x="177.381288" y="400.269422" transform="rotate(-0 177.381288 400.269422)">14.0%</text>
     </g>
    </g>
    <g id="xtick_2">
     <g id="line2d_2">
      <g>
       <use xlink:href="#m745a0373ff" x="280.472899" y="384.912" style="fill: #475467; stroke: #475467; stroke-width: 0.8"/>
      </g>
     </g>
     <g id="text_2">
      <text style="font-size: 11px; font-family: 'DejaVu Sans'; text-anchor: middle; fill: #475467" x="280.472899" y="400.269422" transform="rotate(-0 280.472899 400.269422)">16.0%</text>
     </g>
    </g>
    <g id="xtick_3">
     <g id="line2d_3">
      <g>
       <use xlink:href="#m745a0373ff" x="383.56451" y="384.912" style="fill: #475467; stroke: #475467; stroke-width: 0.8"/>
      </g>
     </g>
     <g id="text_3">
      <text style="font-size: 11px; font-family: 'DejaVu Sans'; text-anchor: middle; fill: #475467" x="383.56451" y="400.269422" transform="rotate(-0 383.56451 400.269422)">18.0%</text>
     </g>
    </g>
    <g id="xtick_4">
     <g id="line2d_4">
      <g>
       <use xlink:href="#m745a0373ff" x="486.656121" y="384.912" style="fill: #475467; stroke: #475467; stroke-width: 0.8"/>
      </g>
     </g>
     <g id="text_4">
      <text style="font-size: 11px; font-family: 'DejaVu Sans'; text-anchor: middle; fill: #475467" x="486.656121" y="400.269422" transform="rotate(-0 486.656121 400.269422)">20.0%</text>
     </g>
    </g>
    <g id="xtick_5">
     <g id="line2d_5">
      <g>
       <use xlink:href="#m745a0373ff" x="589.747732" y="384.912" style="fill: #475467; stroke: #475467; stroke-width: 0.8"/>
      </g>
     </g>
     <g id="text_5">
      <text style="font-size: 11px; font-family: 'DejaVu Sans'; text-anchor: middle; fill: #475467" x="589.747732" y="400.269422" transform="rotate(-0 589.747732 400.269422)">22.0%</text>
     </g>
    </g>
    <g id="xtick_6">
     <g id="line2d_6">
      <g>
       <use xlink:href="#m745a0373ff" x="692.839343" y="384.912" style="fill: #475467; stroke: #475467; stroke-width: 0.8"/>
      </g>
     </g>
     <g id="text_6">
      <text style="font-size: 11px; font-family: 'DejaVu Sans'; text-anchor: middle; fill: #475467" x="692.839343" y="400.269422" transform="rotate(-0 692.839343 400.269422)">24.0%</text>
     </g>
    </g>
    <g id="text_7">
     <text style="font-size: 11px; font-family: 'DejaVu Sans'; text-anchor: middle; fill: #344054" x="423.72" y="415.270281" transform="rotate(-0 423.72 415.270281)">Mean share of team total gold (same evaluated games)</text>
    </g>
   </g>
   <g id="matplotlib.axis_2">
    <g id="ytick_1">
     <g id="line2d_7">
      <path d="M 87.12 373.764187
L 760.32 373.764187
" clip-path="url(#pc43534a131)" style="fill: none; stroke: #b0b0b0; stroke-opacity: 0.18; stroke-width: 0.8; stroke-linecap: square"/>
     </g>
     <g id="line2d_8">
      <defs>
       <path id="mce0c65b773" d="M 0 0
L -3.5 0
" style="stroke: #475467; stroke-width: 0.8"/>
      </defs>
      <g>
       <use xlink:href="#mce0c65b773" x="87.12" y="373.764187" style="fill: #475467; stroke: #475467; stroke-width: 0.8"/>
      </g>
     </g>
     <g id="text_8">
      <text style="font-size: 11px; font-family: 'DejaVu Sans'; text-anchor: end; fill: #475467" x="80.12" y="377.942898" transform="rotate(-0 80.12 377.942898)">−1.0</text>
     </g>
    </g>
    <g id="ytick_2">
     <g id="line2d_9">
      <path d="M 87.12 340.691684
L 760.32 340.691684
" clip-path="url(#pc43534a131)" style="fill: none; stroke: #b0b0b0; stroke-opacity: 0.18; stroke-width: 0.8; stroke-linecap: square"/>
     </g>
     <g id="line2d_10">
      <g>
       <use xlink:href="#mce0c65b773" x="87.12" y="340.691684" style="fill: #475467; stroke: #475467; stroke-width: 0.8"/>
      </g>
     </g>
     <g id="text_9">
      <text style="font-size: 11px; font-family: 'DejaVu Sans'; text-anchor: end; fill: #475467" x="80.12" y="344.870395" transform="rotate(-0 80.12 344.870395)">−0.8</text>
     </g>
    </g>
    <g id="ytick_3">
     <g id="line2d_11">
      <path d="M 87.12 307.61918
L 760.32 307.61918
" clip-path="url(#pc43534a131)" style="fill: none; stroke: #b0b0b0; stroke-opacity: 0.18; stroke-width: 0.8; stroke-linecap: square"/>
     </g>
     <g id="line2d_12">
      <g>
       <use xlink:href="#mce0c65b773" x="87.12" y="307.61918" style="fill: #475467; stroke: #475467; stroke-width: 0.8"/>
      </g>
     </g>
     <g id="text_10">
      <text style="font-size: 11px; font-family: 'DejaVu Sans'; text-anchor: end; fill: #475467" x="80.12" y="311.797891" transform="rotate(-0 80.12 311.797891)">−0.6</text>
     </g>
    </g>
    <g id="ytick_4">
     <g id="line2d_13">
      <path d="M 87.12 274.546676
L 760.32 274.546676
" clip-path="url(#pc43534a131)" style="fill: none; stroke: #b0b0b0; stroke-opacity: 0.18; stroke-width: 0.8; stroke-linecap: square"/>
     </g>
     <g id="line2d_14">
      <g>
       <use xlink:href="#mce0c65b773" x="87.12" y="274.546676" style="fill: #475467; stroke: #475467; stroke-width: 0.8"/>
      </g>
     </g>
     <g id="text_11">
      <text style="font-size: 11px; font-family: 'DejaVu Sans'; text-anchor: end; fill: #475467" x="80.12" y="278.725387" transform="rotate(-0 80.12 278.725387)">−0.4</text>
     </g>
    </g>
    <g id="ytick_5">
     <g id="line2d_15">
      <path d="M 87.12 241.474173
L 760.32 241.474173
" clip-path="url(#pc43534a131)" style="fill: none; stroke: #b0b0b0; stroke-opacity: 0.18; stroke-width: 0.8; stroke-linecap: square"/>
     </g>
     <g id="line2d_16">
      <g>
       <use xlink:href="#mce0c65b773" x="87.12" y="241.474173" style="fill: #475467; stroke: #475467; stroke-width: 0.8"/>
      </g>
     </g>
     <g id="text_12">
      <text style="font-size: 11px; font-family: 'DejaVu Sans'; text-anchor: end; fill: #475467" x="80.12" y="245.652884" transform="rotate(-0 80.12 245.652884)">−0.2</text>
     </g>
    </g>
    <g id="ytick_6">
     <g id="line2d_17">
      <path d="M 87.12 208.401669
L 760.32 208.401669
" clip-path="url(#pc43534a131)" style="fill: none; stroke: #b0b0b0; stroke-opacity: 0.18; stroke-width: 0.8; stroke-linecap: square"/>
     </g>
     <g id="line2d_18">
      <g>
       <use xlink:href="#mce0c65b773" x="87.12" y="208.401669" style="fill: #475467; stroke: #475467; stroke-width: 0.8"/>
      </g>
     </g>
     <g id="text_13">
      <text style="font-size: 11px; font-family: 'DejaVu Sans'; text-anchor: end; fill: #475467" x="80.12" y="212.58038" transform="rotate(-0 80.12 212.58038)">0.0</text>
     </g>
    </g>
    <g id="ytick_7">
     <g id="line2d_19">
      <path d="M 87.12 175.329165
L 760.32 175.329165
" clip-path="url(#pc43534a131)" style="fill: none; stroke: #b0b0b0; stroke-opacity: 0.18; stroke-width: 0.8; stroke-linecap: square"/>
     </g>
     <g id="line2d_20">
      <g>
       <use xlink:href="#mce0c65b773" x="87.12" y="175.329165" style="fill: #475467; stroke: #475467; stroke-width: 0.8"/>
      </g>
     </g>
     <g id="text_14">
      <text style="font-size: 11px; font-family: 'DejaVu Sans'; text-anchor: end; fill: #475467" x="80.12" y="179.507876" transform="rotate(-0 80.12 179.507876)">0.2</text>
     </g>
    </g>
    <g id="ytick_8">
     <g id="line2d_21">
      <path d="M 87.12 142.256662
L 760.32 142.256662
" clip-path="url(#pc43534a131)" style="fill: none; stroke: #b0b0b0; stroke-opacity: 0.18; stroke-width: 0.8; stroke-linecap: square"/>
     </g>
     <g id="line2d_22">
      <g>
       <use xlink:href="#mce0c65b773" x="87.12" y="142.256662" style="fill: #475467; stroke: #475467; stroke-width: 0.8"/>
      </g>
     </g>
     <g id="text_15">
      <text style="font-size: 11px; font-family: 'DejaVu Sans'; text-anchor: end; fill: #475467" x="80.12" y="146.435373" transform="rotate(-0 80.12 146.435373)">0.4</text>
     </g>
    </g>
    <g id="ytick_9">
     <g id="line2d_23">
      <path d="M 87.12 109.184158
L 760.32 109.184158
" clip-path="url(#pc43534a131)" style="fill: none; stroke: #b0b0b0; stroke-opacity: 0.18; stroke-width: 0.8; stroke-linecap: square"/>
     </g>
     <g id="line2d_24">
      <g>
       <use xlink:href="#mce0c65b773" x="87.12" y="109.184158" style="fill: #475467; stroke: #475467; stroke-width: 0.8"/>
      </g>
     </g>
     <g id="text_16">
      <text style="font-size: 11px; font-family: 'DejaVu Sans'; text-anchor: end; fill: #475467" x="80.12" y="113.362869" transform="rotate(-0 80.12 113.362869)">0.6</text>
     </g>
    </g>
    <g id="text_17">
     <text style="font-size: 11px; font-family: 'DejaVu Sans'; text-anchor: middle; fill: #344054" x="46.766328" y="239.976" transform="rotate(-90 46.766328 239.976)">Mean adjusted damage (role SD units)</text>
    </g>
   </g>
   <g id="line2d_25">
    <path d="M 87.12 208.401669
L 760.32 208.401669
" clip-path="url(#pc43534a131)" style="fill: none; stroke-dasharray: 3.7,1.6; stroke-dashoffset: 0; stroke: #8595a6"/>
   </g>
   <g id="patch_3">
    <path d="M 87.12 384.912
L 87.12 95.04
" style="fill: none; stroke: #c6cdd5; stroke-width: 0.8; stroke-linejoin: miter; stroke-linecap: square"/>
   </g>
   <g id="patch_4">
    <path d="M 87.12 384.912
L 760.32 384.912
" style="fill: none; stroke: #c6cdd5; stroke-width: 0.8; stroke-linejoin: miter; stroke-linecap: square"/>
   </g>
   <g id="legend_1">
    <g id="PathCollection_6">
     <defs>
      <path id="ma31c682c3f" d="M 0 5.415256
C 1.436143 5.415256 2.813658 4.844671 3.829164 3.829164
C 4.844671 2.813658 5.415256 1.436143 5.415256 0
C 5.415256 -1.436143 4.844671 -2.813658 3.829164 -3.829164
C 2.813658 -4.844671 1.436143 -5.415256 0 -5.415256
C -1.436143 -5.415256 -2.813658 -4.844671 -3.829164 -3.829164
C -4.844671 -2.813658 -5.415256 -1.436143 -5.415256 0
C -5.415256 1.436143 -4.844671 2.813658 -3.829164 3.829164
C -2.813658 4.844671 -1.436143 5.415256 0 5.415256
z
" style="stroke: #ffffff; stroke-opacity: 0.75; stroke-width: 0.6"/>
     </defs>
     <g>
      <use xlink:href="#ma31c682c3f" x="104.22" y="79.516671" style="fill: #3569ab; fill-opacity: 0.75; stroke: #ffffff; stroke-opacity: 0.75; stroke-width: 0.6"/>
     </g>
    </g>
    <g id="text_18">
     <text style="font-size: 9px; font-family: 'DejaVu Sans'; text-anchor: start; fill: #172b3a" x="115.92" y="81.879171" transform="rotate(-0 115.92 81.879171)">TOP</text>
    </g>
    <g id="PathCollection_7">
     <defs>
      <path id="mc16cd9d75e" d="M 0 5.300943
C 1.405827 5.300943 2.754263 4.742402 3.748333 3.748333
C 4.742402 2.754263 5.300943 1.405827 5.300943 0
C 5.300943 -1.405827 4.742402 -2.754263 3.748333 -3.748333
C 2.754263 -4.742402 1.405827 -5.300943 0 -5.300943
C -1.405827 -5.300943 -2.754263 -4.742402 -3.748333 -3.748333
C -4.742402 -2.754263 -5.300943 -1.405827 -5.300943 0
C -5.300943 1.405827 -4.742402 2.754263 -3.748333 3.748333
C -2.754263 4.742402 -1.405827 5.300943 0 5.300943
z
" style="stroke: #ffffff; stroke-opacity: 0.75; stroke-width: 0.6"/>
     </defs>
     <g>
      <use xlink:href="#mc16cd9d75e" x="160.928438" y="79.516671" style="fill: #0c8979; fill-opacity: 0.75; stroke: #ffffff; stroke-opacity: 0.75; stroke-width: 0.6"/>
     </g>
    </g>
    <g id="text_19">
     <text style="font-size: 9px; font-family: 'DejaVu Sans'; text-anchor: start; fill: #172b3a" x="172.628437" y="81.879171" transform="rotate(-0 172.628437 81.879171)">JNG</text>
    </g>
    <g id="PathCollection_8">
     <defs>
      <path id="mf4a94e0ac9" d="M 0 5.300943
C 1.405827 5.300943 2.754263 4.742402 3.748333 3.748333
C 4.742402 2.754263 5.300943 1.405827 5.300943 0
C 5.300943 -1.405827 4.742402 -2.754263 3.748333 -3.748333
C 2.754263 -4.742402 1.405827 -5.300943 0 -5.300943
C -1.405827 -5.300943 -2.754263 -4.742402 -3.748333 -3.748333
C -4.742402 -2.754263 -5.300943 -1.405827 -5.300943 0
C -5.300943 1.405827 -4.742402 2.754263 -3.748333 3.748333
C -2.754263 4.742402 -1.405827 5.300943 0 5.300943
z
" style="stroke: #ffffff; stroke-opacity: 0.75; stroke-width: 0.6"/>
     </defs>
     <g>
      <use xlink:href="#mf4a94e0ac9" x="215.990156" y="79.516671" style="fill: #b58018; fill-opacity: 0.75; stroke: #ffffff; stroke-opacity: 0.75; stroke-width: 0.6"/>
     </g>
    </g>
    <g id="text_20">
     <text style="font-size: 9px; font-family: 'DejaVu Sans'; text-anchor: start; fill: #172b3a" x="227.690156" y="81.879171" transform="rotate(-0 227.690156 81.879171)">MID</text>
    </g>
    <g id="PathCollection_9">
     <defs>
      <path id="m6cd2bb4b3a" d="M 0 5.399074
C 1.431851 5.399074 2.80525 4.830193 3.817722 3.817722
C 4.830193 2.80525 5.399074 1.431851 5.399074 0
C 5.399074 -1.431851 4.830193 -2.80525 3.817722 -3.817722
C 2.80525 -4.830193 1.431851 -5.399074 0 -5.399074
C -1.431851 -5.399074 -2.80525 -4.830193 -3.817722 -3.817722
C -4.830193 -2.80525 -5.399074 -1.431851 -5.399074 0
C -5.399074 1.431851 -4.830193 2.80525 -3.817722 3.817722
C -2.80525 4.830193 -1.431851 5.399074 0 5.399074
z
" style="stroke: #ffffff; stroke-opacity: 0.75; stroke-width: 0.6"/>
     </defs>
     <g>
      <use xlink:href="#m6cd2bb4b3a" x="272.040469" y="79.516671" style="fill: #c35264; fill-opacity: 0.75; stroke: #ffffff; stroke-opacity: 0.75; stroke-width: 0.6"/>
     </g>
    </g>
    <g id="text_21">
     <text style="font-size: 9px; font-family: 'DejaVu Sans'; text-anchor: start; fill: #172b3a" x="283.740469" y="81.879171" transform="rotate(-0 283.740469 81.879171)">BOT</text>
    </g>
    <g id="PathCollection_10">
     <defs>
      <path id="mb76df119cc" d="M 0 5.317424
C 1.410197 5.317424 2.762827 4.757147 3.759987 3.759987
C 4.757147 2.762827 5.317424 1.410197 5.317424 0
C 5.317424 -1.410197 4.757147 -2.762827 3.759987 -3.759987
C 2.762827 -4.757147 1.410197 -5.317424 0 -5.317424
C -1.410197 -5.317424 -2.762827 -4.757147 -3.759987 -3.759987
C -4.757147 -2.762827 -5.317424 -1.410197 -5.317424 0
C -5.317424 1.410197 -4.757147 2.762827 -3.759987 3.759987
C -2.762827 4.757147 -1.410197 5.317424 0 5.317424
z
" style="stroke: #ffffff; stroke-opacity: 0.75; stroke-width: 0.6"/>
     </defs>
     <g>
      <use xlink:href="#mb76df119cc" x="329.339531" y="79.516671" style="fill: #8857ad; fill-opacity: 0.75; stroke: #ffffff; stroke-opacity: 0.75; stroke-width: 0.6"/>
     </g>
    </g>
    <g id="text_22">
     <text style="font-size: 9px; font-family: 'DejaVu Sans'; text-anchor: start; fill: #172b3a" x="341.039531" y="81.879171" transform="rotate(-0 341.039531 81.879171)">SUP</text>
    </g>
   </g>
  </g>
  <g id="text_23">
   <text style="font-weight: 700; font-size: 21px; font-family: 'DejaVu Sans'; text-anchor: start; fill: #172b3a" x="47.52" y="28.512" transform="rotate(-0 47.52 28.512)">Resource share and adjusted damage</text>
  </g>
  <g id="text_24">
   <text style="font-size: 10px; font-family: 'DejaVu Sans'; text-anchor: start; fill: #172b3a" x="47.52" y="54.648" transform="rotate(-0 47.52 54.648)">2025 LPL · each point is one player, team and role; at least 10 evaluated games on 3 days</text>
  </g>
  <g id="text_25">
   <text style="font-size: 9px; font-family: 'DejaVu Sans'; text-anchor: start; fill: #172b3a" x="47.52" y="444.312" transform="rotate(-0 47.52 444.312)">Adjusted damage = (actual DPM − predicted DPM) / training-role SD. Point area increases with game count.</text>
  </g>
  <g id="text_26">
   <text style="font-size: 9px; font-family: 'DejaVu Sans'; text-anchor: start; fill: #667085" x="47.52" y="460.944" transform="rotate(-0 47.52 460.944)">Source: Oracle's Elixir, pinned 2025 LPL snapshot. Estimates describe damage output, not overall player value.</text>
  </g>
 </g>
 <defs>
  <clipPath id="pc43534a131">
   <rect x="87.12" y="95.04" width="673.2" height="289.872"/>
  </clipPath>
 </defs>
</svg>
